<svg width="221" height="200" viewBox="0 0 221 200" fill="none" xmlns="http://www.w3.org/2000/svg">
<g clip-path="url(#clip0)">
<path d="M110.257 71.3877H110.257C114.274 71.3877 118.253 72.179 121.964 73.7164C125.676 75.2538 129.048 77.5072 131.889 80.3479C134.73 83.1887 136.983 86.5612 138.521 90.2728C140.058 93.9844 140.849 97.9625 140.849 101.98V175.277H79.6647V101.98C79.6647 97.9625 80.456 93.9844 81.9934 90.2728C83.5308 86.5612 85.7842 83.1887 88.625 80.348C91.4657 77.5072 94.8382 75.2538 98.5498 73.7164C102.261 72.179 106.24 71.3877 110.257 71.3877Z" fill="#E6E6E6"/>
<path d="M99.6433 108.168H94.1492V126.398H99.6433V108.168Z" fill="white"/>
<path d="M119.372 127.897H101.142V144.379H119.372V127.897Z" fill="white"/>
<path d="M119.372 108.168H101.142V126.398H119.372V108.168Z" fill="white"/>
<path d="M120.871 106.669H126.365V106.295C126.367 104.001 125.877 101.733 124.93 99.6439C123.982 97.5549 122.598 95.693 120.871 94.1836V106.669Z" fill="white"/>
<path d="M101.142 106.669H119.372V93.0155C116.692 91.169 113.512 90.1824 110.257 90.1869C107.002 90.1824 103.822 91.169 101.142 93.0155V106.669Z" fill="white"/>
<path d="M99.6433 127.897H94.1492V140.383C94.1492 141.443 94.5702 142.459 95.3195 143.209C96.0689 143.958 97.0852 144.379 98.145 144.379H99.6433V127.897Z" fill="white"/>
<path d="M120.871 127.897V144.379H122.369C123.429 144.379 124.445 143.958 125.194 143.209C125.944 142.459 126.365 141.443 126.365 140.383V127.897H120.871Z" fill="white"/>
<path d="M99.6434 106.669V94.1836C97.916 95.693 96.5319 97.5549 95.5842 99.6439C94.6365 101.733 94.1472 104.001 94.1492 106.295V106.669H99.6434Z" fill="white"/>
<path d="M126.365 108.168H120.871V126.398H126.365V108.168Z" fill="white"/>
<path d="M136.479 132.392C138.272 132.392 139.725 130.938 139.725 129.145C139.725 127.352 138.272 125.899 136.479 125.899C134.686 125.899 133.232 127.352 133.232 129.145C133.232 130.938 134.686 132.392 136.479 132.392Z" fill="#3F3D56"/>
<path d="M34.1278 97.9871H29.8156V112.296H34.1278V97.9871Z" fill="#F2F2F2"/>
<path d="M49.6125 97.9871H35.3038V112.296H49.6125V97.9871Z" fill="#F2F2F2"/>
<path d="M55.1008 97.9871H50.7886V112.296H55.1008V97.9871Z" fill="#F2F2F2"/>
<path d="M50.7886 96.811H55.1008V96.5168C55.1023 94.7164 54.7183 92.9364 53.9745 91.2968C53.2307 89.6572 52.1443 88.1958 50.7886 87.0111V96.811Z" fill="#F2F2F2"/>
<path d="M49.6125 113.472H35.3038V126.408H49.6125V113.472Z" fill="#F2F2F2"/>
<path d="M34.1278 113.472H29.8156V123.272C29.8156 124.104 30.146 124.902 30.7341 125.49C31.3223 126.078 32.1199 126.408 32.9517 126.408H34.1278L34.1278 113.472Z" fill="#F2F2F2"/>
<path d="M50.7886 113.472V126.408H51.9646C52.3765 126.408 52.7843 126.327 53.1648 126.17C53.5453 126.012 53.891 125.781 54.1822 125.49C54.4735 125.199 54.7045 124.853 54.8621 124.472C55.0197 124.092 55.1008 123.684 55.1008 123.272V113.472H50.7886Z" fill="#F2F2F2"/>
<path d="M34.1278 96.811V87.0111C32.772 88.1958 31.6857 89.6572 30.9419 91.2968C30.1981 92.9365 29.814 94.7164 29.8156 96.5168V96.811H34.1278Z" fill="#F2F2F2"/>
<path d="M35.3038 96.811H49.6125V86.0944C47.5084 84.6451 45.013 83.8707 42.4581 83.8743C39.9033 83.8708 37.4079 84.6451 35.3038 86.0944V96.811Z" fill="#F2F2F2"/>
<path d="M60.7326 127.972H24.2748C24.041 127.972 23.8168 127.879 23.6514 127.713C23.4861 127.548 23.393 127.324 23.3928 127.09V124.738C23.3931 124.504 23.4861 124.28 23.6514 124.114C23.8168 123.949 24.041 123.856 24.2748 123.856H60.7326C60.9664 123.856 61.1906 123.949 61.356 124.114C61.5213 124.28 61.6144 124.504 61.6146 124.738V127.09C61.6144 127.324 61.5213 127.548 61.356 127.713C61.1906 127.879 60.9664 127.972 60.7326 127.972Z" fill="#E6E6E6"/>
<path d="M169.733 97.9871H165.42V112.296H169.733V97.9871Z" fill="#F2F2F2"/>
<path d="M185.217 97.9871H170.909V112.296H185.217V97.9871Z" fill="#F2F2F2"/>
<path d="M190.706 97.9871H186.393V112.296H190.706V97.9871Z" fill="#F2F2F2"/>
<path d="M186.393 96.811H190.706V96.5168C190.707 94.7164 190.323 92.9364 189.579 91.2968C188.836 89.6572 187.749 88.1958 186.393 87.0111V96.811Z" fill="#F2F2F2"/>
<path d="M185.217 113.472H170.909V126.408H185.217V113.472Z" fill="#F2F2F2"/>
<path d="M169.733 113.472H165.42V123.272C165.42 124.104 165.751 124.902 166.339 125.49C166.927 126.078 167.725 126.408 168.557 126.408H169.733L169.733 113.472Z" fill="#F2F2F2"/>
<path d="M186.393 113.472V126.408H187.569C187.981 126.408 188.389 126.327 188.77 126.17C189.15 126.012 189.496 125.781 189.787 125.49C190.078 125.199 190.309 124.853 190.467 124.472C190.625 124.092 190.706 123.684 190.706 123.272V113.472H186.393Z" fill="#F2F2F2"/>
<path d="M169.733 96.811V87.0111C168.377 88.1958 167.291 89.6572 166.547 91.2968C165.803 92.9365 165.419 94.7164 165.42 96.5168V96.811H169.733Z" fill="#F2F2F2"/>
<path d="M170.909 96.811H185.217V86.0944C183.113 84.6451 180.618 83.8707 178.063 83.8743C175.508 83.8708 173.013 84.6451 170.909 86.0944V96.811Z" fill="#F2F2F2"/>
<path d="M196.337 127.972H159.88C159.646 127.972 159.422 127.879 159.256 127.713C159.091 127.548 158.998 127.324 158.998 127.09V124.738C158.998 124.504 159.091 124.28 159.256 124.114C159.422 123.949 159.646 123.856 159.88 123.856H196.337C196.571 123.856 196.796 123.949 196.961 124.114C197.126 124.28 197.219 124.504 197.22 124.738V127.09C197.219 127.324 197.126 127.548 196.961 127.713C196.796 127.879 196.571 127.972 196.337 127.972Z" fill="#E6E6E6"/>
<path d="M207.153 175.526H13.3607C11.1757 175.524 9.08101 174.655 7.53602 173.11C5.99103 171.565 5.12197 169.47 5.11951 167.285V41.6694C5.12197 39.4845 5.99103 37.3897 7.53602 35.8447C9.08101 34.2997 11.1757 33.4307 13.3607 33.4282H207.153C209.338 33.4307 211.433 34.2997 212.978 35.8447C214.523 37.3897 215.392 39.4845 215.394 41.6694V167.285C215.392 169.47 214.523 171.565 212.978 173.11C211.433 174.655 209.338 175.524 207.153 175.526ZM13.3607 33.9277C11.3082 33.93 9.34039 34.7464 7.88904 36.1978C6.43769 37.6491 5.6213 39.6169 5.61897 41.6694V167.285C5.6213 169.337 6.43769 171.305 7.88904 172.757C9.34039 174.208 11.3082 175.024 13.3607 175.027H207.153C209.206 175.024 211.174 174.208 212.625 172.757C214.076 171.305 214.893 169.337 214.895 167.285V41.6694C214.893 39.6169 214.076 37.6491 212.625 36.1978C211.174 34.7464 209.206 33.93 207.153 33.9277H13.3607Z" fill="#CCCCCC"/>
<path d="M8.25325 49.8531C6.17864 49.8515 4.1806 49.0692 2.65638 47.6618C1.13215 46.2544 0.193383 44.3249 0.0267131 42.257C-0.139957 40.1891 0.477678 38.1342 1.75682 36.5009C3.03597 34.8675 4.88293 33.7754 6.93051 33.4415L108.211 0.164408C109.527 -0.0531538 110.87 -0.0548014 112.186 0.159531L213.601 33.447C215.761 33.8033 217.69 35.0023 218.966 36.7806C220.242 38.5589 220.76 40.7711 220.406 42.9309C220.052 45.0908 218.855 47.0217 217.078 48.2994C215.301 49.5771 213.089 50.0971 210.929 49.7451C209.836 49.5891 111.155 35.4988 110.255 35.4617C109.359 35.4988 10.5812 49.6028 9.58355 49.7454C9.14374 49.817 8.69886 49.853 8.25325 49.8531Z" fill="#CCCCCC"/>
<path d="M153.694 155.685C153.903 155.414 154.05 155.1 154.125 154.766C154.199 154.432 154.2 154.085 154.126 153.751C154.052 153.417 153.906 153.103 153.698 152.831C153.489 152.559 153.224 152.337 152.92 152.179L153.383 146.847L150.212 145.776L149.664 153.314C149.432 153.842 149.402 154.436 149.58 154.984C149.757 155.533 150.129 155.997 150.626 156.289C151.123 156.582 151.71 156.682 152.275 156.57C152.841 156.459 153.346 156.144 153.694 155.685Z" fill="#FFB8B8"/>
<path d="M169.52 197.134L166.664 197.134L165.307 186.122L169.521 186.122L169.52 197.134Z" fill="#FFB8B8"/>
<path d="M164.625 196.318H170.131V199.785H161.158C161.158 199.33 161.248 198.879 161.422 198.458C161.596 198.037 161.852 197.655 162.174 197.333C162.496 197.011 162.878 196.756 163.298 196.582C163.719 196.408 164.17 196.318 164.625 196.318Z" fill="#2F2E41"/>
<path d="M163.039 189.827L160.266 190.508L156.319 180.138L160.411 179.133L163.039 189.827Z" fill="#FFB8B8"/>
<path d="M158.091 190.203L163.438 188.889L164.265 192.256L155.552 194.397C155.443 193.955 155.423 193.495 155.492 193.045C155.56 192.595 155.717 192.163 155.953 191.774C156.189 191.384 156.499 191.045 156.866 190.776C157.233 190.506 157.649 190.311 158.091 190.203Z" fill="#2F2E41"/>
<path d="M166.178 193.623C165.917 193.624 165.666 193.528 165.472 193.353C165.279 193.179 165.157 192.939 165.13 192.68L161.845 162.074L158.986 171.433L163.035 186.051C163.105 186.301 163.079 186.569 162.964 186.802C162.848 187.035 162.651 187.217 162.409 187.313L159.19 188.601C159.058 188.654 158.916 188.68 158.773 188.676C158.63 188.673 158.49 188.641 158.36 188.581C158.23 188.522 158.114 188.437 158.017 188.332C157.921 188.226 157.847 188.103 157.8 187.968L152.838 173.731C152.295 172.176 152.054 170.532 152.13 168.887L152.823 153.523L171.064 154.295L170.779 192.308C170.776 192.573 170.674 192.826 170.493 193.02C170.312 193.213 170.066 193.332 169.802 193.354L166.26 193.62C166.232 193.622 166.205 193.623 166.178 193.623Z" fill="#2F2E41"/>
<path d="M163.157 119.52C166.545 119.52 169.291 116.774 169.291 113.387C169.291 109.999 166.545 107.253 163.157 107.253C159.769 107.253 157.023 109.999 157.023 113.387C157.023 116.774 159.769 119.52 163.157 119.52Z" fill="#FFB8B8"/>
<path d="M167.668 155.295C166.052 155.295 164.045 155.162 161.969 155.026C159.132 154.839 156.199 154.646 154.009 154.773C153.713 154.802 153.415 154.755 153.143 154.637C152.87 154.518 152.633 154.332 152.453 154.095C150.196 151.205 153.677 139.933 153.827 139.455L156.66 126.852L156.782 126.879L156.66 126.852C157.284 124.08 159.275 122.035 161.858 121.515C164.275 121.029 166.614 121.997 168.113 124.106C168.193 124.218 168.272 124.333 168.352 124.451C173.235 131.682 170.473 149.648 170.288 150.807C170.546 151.116 171.94 152.863 171.557 154.076C171.401 154.57 170.977 154.906 170.298 155.076C169.432 155.248 168.55 155.321 167.668 155.295Z" fill="#CCCCCC"/>
<path d="M154.108 155.3C153.553 155.3 152.803 155.095 151.792 154.675C151.358 154.494 150.037 153.944 151.641 139.922C152.429 133.035 153.558 126.195 153.569 126.127L153.58 126.061L153.641 126.034C153.67 126.02 156.554 124.699 157.055 123C157.072 122.941 157.092 122.884 157.113 122.829C157.251 122.452 157.53 122.142 157.89 121.965C158.251 121.788 158.667 121.757 159.05 121.878C159.454 121.975 159.807 122.222 160.036 122.569C160.266 122.917 160.354 123.338 160.284 123.748C160.109 124.856 159.774 125.932 159.287 126.943C157.931 129.742 157.011 137.164 157.002 137.238C156.95 137.872 155.719 152.89 155.482 154.029C155.399 154.427 155.247 154.914 154.799 155.151C154.585 155.256 154.347 155.308 154.108 155.3Z" fill="#2F2E41"/>
<path d="M160.809 154.725C160.697 154.725 160.588 154.687 160.499 154.619C158.695 153.247 161.615 136.625 163.348 130.89C163.694 129.742 164.003 128.758 164.266 127.966C164.744 126.546 165.077 125.082 165.262 123.595C165.357 122.789 165.564 122.329 165.895 122.188C166.125 122.09 166.396 122.156 166.699 122.386C168.299 122.307 169.854 122.961 171.295 123.68L172.591 124.327L174.046 150.087C174.005 151.73 170.765 152.891 169.351 152.965C167.081 153.084 163.005 153.454 161.209 154.591C161.091 154.673 160.952 154.719 160.809 154.725Z" fill="#2F2E41"/>
<path d="M152.703 149.892C152.682 149.892 152.66 149.891 152.639 149.89L149.7 149.709C149.554 149.7 149.411 149.66 149.281 149.593C149.15 149.526 149.035 149.432 148.943 149.318C148.851 149.204 148.784 149.072 148.745 148.931C148.707 148.789 148.698 148.642 148.72 148.497L150.05 139.686L152.554 127.325C152.615 127.021 152.74 126.733 152.92 126.48C153.1 126.226 153.332 126.014 153.599 125.856C153.867 125.698 154.165 125.598 154.473 125.563C154.782 125.527 155.095 125.557 155.391 125.65C155.898 125.811 156.33 126.149 156.61 126.601C156.889 127.054 156.998 127.591 156.916 128.117L154.927 140.503L153.75 148.98C153.714 149.233 153.588 149.463 153.396 149.631C153.204 149.798 152.958 149.891 152.703 149.892Z" fill="#2F2E41"/>
<path d="M164.277 119.369C165.201 119.389 166.118 119.214 166.968 118.854C167.818 118.494 168.583 117.959 169.212 117.283C169.84 116.606 170.319 115.805 170.616 114.93C170.913 114.056 171.021 113.129 170.934 112.209C170.847 111.29 170.566 110.4 170.11 109.597C169.655 108.794 169.034 108.096 168.29 107.55C167.545 107.004 166.693 106.621 165.791 106.428C164.888 106.234 163.954 106.234 163.051 106.427C161.702 105.608 160.134 105.057 158.562 105.197C156.991 105.337 155.436 106.27 154.848 107.735C154.261 109.199 154.892 111.13 156.353 111.725C157.29 112.106 158.349 111.921 159.348 111.767C160.348 111.614 161.439 111.513 162.309 112.029C163.18 112.545 163.571 113.928 162.791 114.573C162.378 114.929 162.083 115.402 161.946 115.929C161.808 116.457 161.834 117.013 162.021 117.525C162.413 118.538 163.482 119.352 164.277 119.369Z" fill="#2F2E41"/>
<path d="M150.681 119.916C149.083 119.917 147.55 120.553 146.42 121.684C145.29 122.815 144.655 124.348 144.655 125.946C144.655 127.545 145.29 129.078 146.42 130.209C147.55 131.339 149.083 131.975 150.681 131.976H150.681C152.28 131.975 153.813 131.339 154.943 130.209C156.073 129.078 156.707 127.545 156.707 125.946C156.707 124.348 156.073 122.815 154.943 121.684C153.813 120.553 152.28 119.917 150.681 119.916Z" fill="#4EA584"/>
<path d="M150.109 128.451C149.95 128.451 149.796 128.4 149.669 128.304L149.661 128.298L148.003 127.03C147.926 126.971 147.861 126.898 147.813 126.814C147.765 126.73 147.733 126.638 147.721 126.542C147.708 126.446 147.714 126.348 147.739 126.255C147.764 126.161 147.807 126.074 147.866 125.997C147.925 125.92 147.999 125.855 148.082 125.807C148.166 125.759 148.259 125.727 148.355 125.714C148.451 125.702 148.548 125.708 148.641 125.733C148.735 125.758 148.823 125.801 148.899 125.86L149.974 126.684L152.512 123.373C152.57 123.296 152.644 123.231 152.728 123.183C152.811 123.135 152.904 123.103 153 123.091C153.096 123.078 153.193 123.084 153.287 123.109C153.38 123.134 153.468 123.177 153.544 123.236L153.545 123.236L153.529 123.258L153.545 123.236C153.7 123.355 153.801 123.531 153.827 123.725C153.852 123.918 153.8 124.114 153.681 124.269L150.696 128.162C150.627 128.252 150.538 128.325 150.436 128.374C150.335 128.424 150.223 128.45 150.11 128.45L150.109 128.451Z" fill="white"/>
<path d="M163.384 136.637H142.22C141.939 136.637 141.66 136.693 141.4 136.8C141.14 136.908 140.904 137.066 140.704 137.265C140.505 137.464 140.348 137.7 140.24 137.96C140.132 138.22 140.077 138.499 140.077 138.78V159.944C140.077 160.225 140.132 160.504 140.24 160.764C140.348 161.024 140.505 161.26 140.704 161.459C140.904 161.658 141.14 161.816 141.4 161.924C141.66 162.032 141.939 162.087 142.22 162.087H163.384C163.665 162.087 163.944 162.032 164.204 161.924C164.464 161.816 164.7 161.658 164.899 161.459C165.098 161.26 165.256 161.024 165.364 160.764C165.471 160.504 165.527 160.225 165.527 159.944V138.78C165.527 138.499 165.471 138.22 165.364 137.96C165.256 137.7 165.098 137.464 164.899 137.265C164.7 137.066 164.464 136.908 164.204 136.8C163.944 136.693 163.665 136.637 163.384 136.637Z" fill="#4EA584"/>
<path d="M158.617 152.462L148.625 154.408C148.032 154.523 147.418 154.398 146.918 154.06C146.417 153.723 146.071 153.201 145.955 152.608L145.187 148.664C145.072 148.071 145.197 147.457 145.534 146.957C145.872 146.456 146.394 146.11 146.986 145.994L156.979 144.048C157.571 143.933 158.185 144.058 158.686 144.396C159.187 144.733 159.533 145.255 159.649 145.848L160.417 149.792C160.532 150.385 160.407 150.999 160.069 151.499C159.732 152 159.21 152.346 158.617 152.462Z" fill="white"/>
<path d="M156.618 147.803L148.993 149.288C148.853 149.315 148.708 149.285 148.591 149.206C148.473 149.127 148.391 149.004 148.364 148.864C148.337 148.725 148.366 148.58 148.446 148.462C148.525 148.344 148.648 148.263 148.788 148.236L156.413 146.751C156.482 146.737 156.553 146.738 156.622 146.751C156.691 146.765 156.757 146.793 156.815 146.832C156.874 146.872 156.924 146.922 156.963 146.981C157.002 147.039 157.029 147.105 157.042 147.174C157.056 147.243 157.055 147.314 157.041 147.383C157.027 147.452 157 147.518 156.96 147.576C156.921 147.635 156.87 147.685 156.812 147.723C156.753 147.762 156.687 147.789 156.618 147.803Z" fill="#4EA584"/>
<path d="M155.136 150.002L151.192 150.77C151.123 150.783 151.051 150.783 150.983 150.769C150.914 150.755 150.848 150.728 150.79 150.688C150.731 150.649 150.681 150.598 150.643 150.54C150.604 150.481 150.577 150.415 150.563 150.346C150.55 150.277 150.55 150.206 150.564 150.137C150.578 150.068 150.606 150.003 150.645 149.944C150.684 149.886 150.735 149.836 150.793 149.797C150.852 149.758 150.918 149.731 150.987 149.718L154.931 148.95C155.071 148.923 155.215 148.952 155.333 149.032C155.451 149.111 155.532 149.234 155.559 149.373C155.587 149.513 155.557 149.657 155.478 149.775C155.398 149.893 155.275 149.975 155.136 150.002H155.136Z" fill="#4EA584"/>
<path d="M165.527 138.78V141.593H140.077V138.78C140.077 138.499 140.132 138.22 140.24 137.96C140.348 137.7 140.505 137.464 140.705 137.265C140.904 137.066 141.14 136.908 141.4 136.8C141.66 136.693 141.939 136.637 142.22 136.637H163.384C163.665 136.637 163.944 136.693 164.204 136.8C164.464 136.908 164.7 137.066 164.899 137.265C165.098 137.464 165.256 137.7 165.364 137.96C165.471 138.22 165.527 138.499 165.527 138.78Z" fill="#3F3D56"/>
<path d="M162.743 140.248C162.922 139.956 163.163 139.708 163.449 139.519C163.735 139.331 164.059 139.207 164.397 139.157C164.736 139.108 165.081 139.133 165.409 139.231C165.737 139.329 166.04 139.498 166.295 139.725L171.114 137.398L173.243 139.981L166.392 143.172C165.981 143.577 165.436 143.816 164.86 143.845C164.285 143.874 163.718 143.691 163.268 143.331C162.819 142.97 162.517 142.458 162.42 141.889C162.323 141.321 162.438 140.737 162.743 140.248Z" fill="#FFB8B8"/>
<path d="M169.437 142.748C169.199 142.748 168.969 142.668 168.783 142.521C168.596 142.374 168.465 142.169 168.409 141.938L167.709 139.029C167.656 138.81 167.674 138.58 167.761 138.372C167.849 138.164 168 137.99 168.194 137.875L172.415 135.349L170.257 127.449C170.105 126.887 170.138 126.292 170.352 125.751H170.352C170.555 125.238 170.912 124.8 171.374 124.497C171.835 124.194 172.378 124.04 172.93 124.057C173.482 124.074 174.015 124.261 174.457 124.591C174.899 124.922 175.228 125.381 175.4 125.906L177.782 133.179C178.075 134.066 178.077 135.022 177.789 135.911C177.5 136.799 176.936 137.572 176.178 138.117L170.055 142.547C169.875 142.677 169.659 142.748 169.437 142.748Z" fill="#2F2E41"/>
<path d="M176.412 200H150.939C150.873 200 150.809 199.974 150.762 199.927C150.715 199.88 150.689 199.816 150.689 199.75C150.689 199.684 150.715 199.62 150.762 199.574C150.809 199.527 150.873 199.5 150.939 199.5H176.412C176.478 199.5 176.541 199.527 176.588 199.574C176.635 199.62 176.661 199.684 176.661 199.75C176.661 199.816 176.635 199.88 176.588 199.927C176.541 199.974 176.478 200 176.412 200Z" fill="#CCCCCC"/>
</g>
<defs>
<clipPath id="clip0">
<rect width="220.514" height="200" fill="white"/>
</clipPath>
</defs>
</svg>
