<svg width="30" height="30" viewBox="0 0 30 30" fill="none" xmlns="http://www.w3.org/2000/svg">
<path d="M5.47781 0C2.44334 0 0 2.44334 0 5.47781V24.5222C0 27.5566 2.44334 30 5.47781 30H15.7997V18.2719H12.6984V14.0494H15.7997V10.4419C15.7997 7.60762 17.632 5.00531 21.8531 5.00531C23.5621 5.00531 24.8259 5.16938 24.8259 5.16938L24.7265 9.11251C24.7265 9.11251 23.4376 9.10033 22.0312 9.10033C20.509 9.10033 20.265 9.80167 20.265 10.966V14.0494H24.8475L24.6478 18.2719H20.265V30H24.5221C27.5566 30 29.9999 27.5567 29.9999 24.5222V5.47784C29.9999 2.44338 27.5566 2.99999e-05 24.5221 2.99999e-05H5.47778L5.47781 0Z" fill="#838383"/>
</svg>
