<svg width="27" height="27" viewBox="0 0 27 27" fill="none" xmlns="http://www.w3.org/2000/svg">
<path d="M23.4375 0H2.8125C1.25977 0 0 1.25977 0 2.8125V23.4375C0 24.9902 1.25977 26.25 2.8125 26.25H23.4375C24.9902 26.25 26.25 24.9902 26.25 23.4375V2.8125C26.25 1.25977 24.9902 0 23.4375 0ZM16.248 22.4824C15.7559 22.5703 15.5742 22.2656 15.5742 22.0137C15.5742 21.6973 15.5859 20.0801 15.5859 18.7734C15.5859 17.8594 15.2812 17.2793 14.9238 16.9746C17.0918 16.7344 19.377 16.4355 19.377 12.6914C19.377 11.625 18.9961 11.0918 18.375 10.4062C18.4746 10.1543 18.8086 9.11719 18.2754 7.76953C17.4609 7.51758 15.5977 8.81836 15.5977 8.81836C14.8242 8.60156 13.9863 8.49023 13.1602 8.49023C12.334 8.49023 11.4961 8.60156 10.7227 8.81836C10.7227 8.81836 8.85938 7.51758 8.04492 7.76953C7.51172 9.11133 7.83984 10.1484 7.94531 10.4062C7.32422 11.0918 7.03125 11.625 7.03125 12.6914C7.03125 16.418 9.2168 16.7344 11.3848 16.9746C11.1035 17.2266 10.8516 17.6602 10.7637 18.2812C10.207 18.5332 8.7832 18.9668 7.93359 17.4668C7.40039 16.541 6.43945 16.4648 6.43945 16.4648C5.49023 16.4531 6.375 17.0625 6.375 17.0625C7.00781 17.3555 7.45312 18.4805 7.45312 18.4805C8.02148 20.2207 10.7402 19.6348 10.7402 19.6348C10.7402 20.4492 10.752 21.7734 10.752 22.0137C10.752 22.2656 10.5762 22.5703 10.0781 22.4824C6.21094 21.1875 3.50391 17.5078 3.50391 13.207C3.50391 7.82812 7.61719 3.74414 12.9961 3.74414C18.375 3.74414 22.7344 7.82812 22.7344 13.207C22.7402 17.5078 20.1152 21.1934 16.248 22.4824ZM10.5 18.9023C10.3887 18.9258 10.2832 18.8789 10.2715 18.8027C10.2598 18.7148 10.3359 18.6387 10.4473 18.6152C10.5586 18.6035 10.6641 18.6504 10.6758 18.7266C10.6934 18.8027 10.6172 18.8789 10.5 18.9023ZM9.94336 18.8496C9.94336 18.9258 9.85547 18.9902 9.73828 18.9902C9.60938 19.002 9.52148 18.9375 9.52148 18.8496C9.52148 18.7734 9.60938 18.709 9.72656 18.709C9.83789 18.6973 9.94336 18.7617 9.94336 18.8496ZM9.14062 18.7852C9.11719 18.8613 9 18.8965 8.90039 18.8613C8.78906 18.8379 8.71289 18.75 8.73633 18.6738C8.75977 18.5977 8.87695 18.5625 8.97656 18.5859C9.09375 18.6211 9.16992 18.709 9.14062 18.7852ZM8.41992 18.4688C8.36719 18.5332 8.25586 18.5215 8.16797 18.4336C8.08008 18.3574 8.05664 18.2461 8.11523 18.1934C8.16797 18.1289 8.2793 18.1406 8.36719 18.2285C8.44336 18.3047 8.47266 18.4219 8.41992 18.4688ZM7.88672 17.9355C7.83398 17.9707 7.73437 17.9355 7.66992 17.8477C7.60547 17.7598 7.60547 17.6602 7.66992 17.6191C7.73437 17.5664 7.83398 17.6074 7.88672 17.6953C7.95117 17.7832 7.95117 17.8887 7.88672 17.9355ZM7.50586 17.3672C7.45313 17.4199 7.36523 17.3906 7.30078 17.332C7.23633 17.2559 7.22461 17.168 7.27734 17.127C7.33008 17.0742 7.41797 17.1035 7.48242 17.1621C7.54688 17.2383 7.55859 17.3262 7.50586 17.3672ZM7.11328 16.9336C7.08984 16.9863 7.01367 16.998 6.94922 16.957C6.87305 16.9219 6.83789 16.8574 6.86133 16.8047C6.88477 16.7695 6.94922 16.752 7.02539 16.7812C7.10156 16.8223 7.13672 16.8867 7.11328 16.9336Z" fill="#838383"/>
</svg>
