<svg width="15" height="21" viewBox="0 0 15 21" fill="none" xmlns="http://www.w3.org/2000/svg">
<path d="M14.5 7.5C14.5 6.58075 14.3189 5.6705 13.9672 4.82122C13.6154 3.97194 13.0998 3.20026 12.4497 2.55025C11.7997 1.90024 11.0281 1.38463 10.1788 1.03284C9.3295 0.68106 8.41925 0.5 7.5 0.5C6.58075 0.5 5.67049 0.68106 4.82122 1.03284C3.97194 1.38463 3.20026 1.90024 2.55025 2.55025C1.90024 3.20026 1.38463 3.97194 1.03284 4.82122C0.68106 5.6705 0.5 6.58075 0.5 7.5C0.5 8.887 0.91 10.177 1.605 11.265H1.597C3.957 14.96 7.5 20.5 7.5 20.5L13.403 11.265H13.396C14.1164 10.1414 14.4995 8.83474 14.5 7.5ZM7.5 10.5C6.70435 10.5 5.94129 10.1839 5.37868 9.62132C4.81607 9.05871 4.5 8.29565 4.5 7.5C4.5 6.70435 4.81607 5.94129 5.37868 5.37868C5.94129 4.81607 6.70435 4.5 7.5 4.5C8.29565 4.5 9.05871 4.81607 9.62132 5.37868C10.1839 5.94129 10.5 6.70435 10.5 7.5C10.5 8.29565 10.1839 9.05871 9.62132 9.62132C9.05871 10.1839 8.29565 10.5 7.5 10.5Z" fill="#C6D2E6"/>
</svg>
