<svg width="25" height="25" viewBox="0 0 25 25" fill="none" xmlns="http://www.w3.org/2000/svg">
<path d="M20.5 3.5H4.5C3.96957 3.5 3.46086 3.71071 3.08579 4.08579C2.71071 4.46086 2.5 4.96957 2.5 5.5V9.5C2.5 10.0304 2.71071 10.5391 3.08579 10.9142C3.46086 11.2893 3.96957 11.5 4.5 11.5H20.5C21.0304 11.5 21.5391 11.2893 21.9142 10.9142C22.2893 10.5391 22.5 10.0304 22.5 9.5V5.5C22.5 4.96957 22.2893 4.46086 21.9142 4.08579C21.5391 3.71071 21.0304 3.5 20.5 3.5ZM15.5 7.5C15.5 8.05228 15.0523 8.5 14.5 8.5V8.5C13.9477 8.5 13.5 8.05228 13.5 7.5V7.5C13.5 6.94772 13.9477 6.5 14.5 6.5V6.5C15.0523 6.5 15.5 6.94772 15.5 7.5V7.5ZM19.5 7.5C19.5 8.05228 19.0523 8.5 18.5 8.5V8.5C17.9477 8.5 17.5 8.05228 17.5 7.5V7.5C17.5 6.94772 17.9477 6.5 18.5 6.5V6.5C19.0523 6.5 19.5 6.94772 19.5 7.5V7.5ZM20.5 13.5H4.5C3.96957 13.5 3.46086 13.7107 3.08579 14.0858C2.71071 14.4609 2.5 14.9696 2.5 15.5V19.5C2.5 20.0304 2.71071 20.5391 3.08579 20.9142C3.46086 21.2893 3.96957 21.5 4.5 21.5H20.5C21.0304 21.5 21.5391 21.2893 21.9142 20.9142C22.2893 20.5391 22.5 20.0304 22.5 19.5V15.5C22.5 14.9696 22.2893 14.4609 21.9142 14.0858C21.5391 13.7107 21.0304 13.5 20.5 13.5ZM15.5 17.5C15.5 18.0523 15.0523 18.5 14.5 18.5V18.5C13.9477 18.5 13.5 18.0523 13.5 17.5V17.5C13.5 16.9477 13.9477 16.5 14.5 16.5V16.5C15.0523 16.5 15.5 16.9477 15.5 17.5V17.5ZM19.5 17.5C19.5 18.0523 19.0523 18.5 18.5 18.5V18.5C17.9477 18.5 17.5 18.0523 17.5 17.5V17.5C17.5 16.9477 17.9477 16.5 18.5 16.5V16.5C19.0523 16.5 19.5 16.9477 19.5 17.5V17.5Z" fill="#C6D2E6"/>
</svg>
