<svg width="32" height="30" viewBox="0 0 32 30" fill="none" xmlns="http://www.w3.org/2000/svg">
<path d="M31.5789 9.47368C31.5791 9.18713 31.501 8.90598 31.3532 8.66053L27.0758 1.53158C26.794 1.06554 26.397 0.679852 25.9231 0.411619C25.4491 0.143387 24.9141 0.00163505 24.3695 0H7.20947C6.10737 0 5.07 0.587368 4.50316 1.53316L0.22579 8.66053C0.0779204 8.90598 -0.00014825 9.18713 2.11348e-07 9.47368C2.11348e-07 11.0605 0.609474 12.4958 1.57895 13.6074V28.4211C1.57895 28.8398 1.7453 29.2414 2.04141 29.5375C2.33752 29.8336 2.73913 30 3.1579 30H15.7895C16.2082 30 16.6098 29.8336 16.906 29.5375C17.2021 29.2414 17.3684 28.8398 17.3684 28.4211V20.5263H23.6842V28.4211C23.6842 28.8398 23.8506 29.2414 24.1467 29.5375C24.4428 29.8336 24.8444 30 25.2632 30H28.4211C28.8398 30 29.2414 29.8336 29.5375 29.5375C29.8336 29.2414 30 28.8398 30 28.4211V13.6074C30.9695 12.4958 31.5789 11.0605 31.5789 9.47368ZM28.3958 9.87C28.2986 10.6325 27.927 11.3335 27.3504 11.8417C26.7738 12.35 26.0318 12.6308 25.2632 12.6316C23.5216 12.6316 22.1053 11.2153 22.1053 9.47368C22.1053 9.36632 22.0658 9.27158 22.0437 9.17053L22.0753 9.16421L20.8737 3.15789H24.3695L28.3958 9.87ZM12.6426 9.57632L13.9247 3.15789H17.6526L18.9363 9.57632C18.8811 11.2705 17.4947 12.6316 15.7895 12.6316C14.0842 12.6316 12.6979 11.2705 12.6426 9.57632ZM7.20947 3.15789H10.7053L9.50526 9.16421L9.53684 9.17053C9.51316 9.27158 9.47368 9.36632 9.47368 9.47368C9.47368 11.2153 8.05737 12.6316 6.31579 12.6316C5.54714 12.6308 4.8051 12.35 4.22851 11.8417C3.65193 11.3335 3.28029 10.6325 3.18316 9.87L7.20947 3.15789ZM12.6316 22.1053H6.31579V17.3684H12.6316V22.1053Z" fill="#121212"/>
</svg>
