<svg width="280" height="200" viewBox="0 0 280 200" fill="none" xmlns="http://www.w3.org/2000/svg">
<g clip-path="url(#clip0)">
<path d="M217.951 90.6968C217.428 89.3519 218.176 88.6795 218.475 87.4841C218.774 86.2886 217.802 82.5528 217.802 82.5528C217.802 82.5528 214.66 69.6269 213.688 67.0866C213.277 66.0116 212.383 65.2721 211.489 64.7755C211.428 64.4457 211.341 64.233 211.22 64.1727C210.353 63.7396 208.195 62.7995 206.757 62.5395C206.488 62.0778 206.169 61.6469 205.805 61.2548C206.058 60.7705 206.175 60.2272 206.144 59.682C206.053 58.2724 204.984 57.0092 205.123 55.6035C205.228 54.5373 206.009 53.6615 206.31 52.6333C206.436 52.1715 206.466 51.6887 206.398 51.2149C206.329 50.741 206.164 50.2863 205.912 49.8789C206.134 50.114 206.355 50.3492 206.576 50.5843C206.877 50.1337 207.022 49.597 206.989 49.0563C206.955 48.5157 206.745 48.0008 206.391 47.5907C205.691 46.8176 204.519 46.5276 203.975 45.6373C203.417 44.7225 203.717 43.4794 203.188 42.5467C201.895 40.2619 198.582 41.8815 196.598 41.0841C195.783 40.7564 195.163 40.3957 194.246 40.4216C193.466 40.4663 192.695 40.6101 191.951 40.8497C190.885 41.158 189.956 41.8227 189.321 42.7326C189.384 42.6614 189.453 42.5958 189.527 42.5365C190.008 42.1601 190.851 42.1915 191.105 42.7464C191.165 42.8859 191.191 43.0381 191.179 43.1897C191.137 43.8587 190.552 44.3582 189.971 44.693C189.389 45.0278 188.735 45.3079 188.356 45.8607C187.73 46.7731 188.098 47.9975 188.098 49.1036C188.093 49.8066 187.93 50.4995 187.621 51.1312C187.313 51.763 186.866 52.3176 186.315 52.7541L188.425 51.8922C187.417 53.6541 186.756 55.5921 186.476 57.602L189.33 55.247C188.273 56.9273 187.63 58.8344 187.455 60.8111L189.746 58.4666C189.85 58.6498 189.903 58.8579 189.897 59.0685L189.658 59.9888C189.574 60.1715 189.48 60.3497 189.378 60.523C189.009 61.1552 188.628 61.9334 188.973 62.579L188.975 62.5781C188.612 63.7977 188.064 65.018 186.847 65.611C188.197 65.7522 189.607 65.0775 190.217 64.0038C190.317 64.197 190.437 64.3789 190.575 64.5462C190.615 64.5953 190.653 64.6439 190.692 64.6927L190.355 64.9168L189.453 65.5175C189.453 65.5175 183.544 66.713 183.918 68.9545C183.934 69.0467 183.952 69.1567 183.973 69.2802L182.273 72.1672L179.804 80.5354C179.804 80.5354 178.533 83.2252 178.757 84.3459C178.982 85.4667 178.757 85.915 178.757 87.9323C178.757 89.9496 177.785 90.7715 178.757 92.4153C179.73 94.059 182.647 98.8408 182.647 98.8408L183.288 99.3209C183.256 99.6092 183.267 99.9005 183.32 100.186C183.918 103.174 189.528 131.791 189.528 131.791C189.528 131.791 186.686 154.43 192.445 155.849C193.168 156.027 193.877 156.189 194.566 156.333L195.437 162.051L194.914 169.298C194.914 169.298 190.949 178.264 198.205 178.787C205.46 179.31 202.169 171.016 202.169 171.016C202.552 170.308 202.709 169.5 202.618 168.7C202.544 168.035 201.921 164.574 201.31 161.245C204.064 160.915 203.549 157.996 203.182 156.713C203.341 156.62 203.459 156.472 203.515 156.297C203.598 155.999 203.405 154.827 203.055 153.184C202.77 151.551 202.283 148.906 201.95 147.115L203.74 147.406L211.294 103.174C211.294 103.174 211.344 102.47 211.322 101.44C212.354 100.907 213.42 100.438 214.511 100.036C216.979 99.065 217.951 95.4786 218.774 93.9843C219.597 92.49 218.475 92.0417 217.951 90.6968ZM191.129 62.5343C191.373 62.366 191.66 62.2689 191.956 62.254C191.892 62.6015 191.294 62.703 190.792 62.885C190.884 62.7504 190.998 62.6319 191.129 62.5343ZM187.359 84.7943C187.965 85.7888 186.868 88.4836 185.879 90.6222C185.313 90.1345 184.721 90.2883 185.414 88.9037C185.887 88.0262 186.167 87.0584 186.237 86.0644C186.237 85.8936 186.325 84.6383 187.062 84.1169C187.139 84.3515 187.239 84.5783 187.359 84.7943ZM185.089 93.3776C185.432 93.2382 185.951 93.024 186.653 92.7858C186.317 93.2263 185.933 93.7511 185.547 94.324C185.401 94.2136 185.284 94.0703 185.204 93.9058C185.125 93.7413 185.085 93.5603 185.089 93.3776ZM209.35 94.3579C208.895 93.8753 208.527 93.4436 208.225 93.0573C208.789 93.2056 209.364 93.3652 209.948 93.536C210.239 93.5795 210.537 93.5597 210.82 93.478C210.846 93.9946 210.846 94.7315 210.846 94.7315L210.026 95.298C209.84 94.9585 209.612 94.6429 209.35 94.3579V94.3579ZM211.671 91.7667C211.662 91.7743 211.653 91.783 211.644 91.791C211.604 91.4956 211.537 91.2044 211.444 90.921C210.954 89.3767 210.692 86.6367 210.553 84.2984L211.968 89.0531C211.968 89.0531 212.042 91.444 211.671 91.7667Z" fill="#D0CDE1"/>
<path d="M182.616 72.1282C182.616 72.1282 174.942 58.9534 174.702 57.5161C174.463 56.0789 170.626 53.4439 170.626 53.4439C169.315 52.1344 167.164 51.72 164.9 51.7416C165.753 51.0372 162.709 50.5636 162.472 50.0903C162.233 49.6112 161.513 49.6112 160.554 48.8926C159.595 48.174 157.2 48.7727 157.2 48.7728C156.84 48.0163 156.59 47.2125 156.456 46.3855C157.478 45.1777 158.038 43.647 158.036 42.0656C158.036 42.0484 158.035 42.0315 158.035 42.0143C158.096 42.1092 158.157 42.2047 158.218 42.3031C158.667 39.6152 159.46 37.3809 157.949 34.929C156.877 33.1911 155.2 31.9105 153.24 31.3336L151.801 32.4839L152.361 31.1422C151.89 31.0705 151.414 31.043 150.938 31.0601L149.643 32.7235L150.179 31.1171C149.055 31.2566 147.972 31.6272 146.999 32.2055C146.026 32.7838 145.183 33.5573 144.524 34.4772C142.875 36.8515 142.985 40.1519 144.607 42.5447C144.612 42.528 144.617 42.5116 144.622 42.4948C144.693 43.6142 145.045 44.6978 145.644 45.6464C146.244 46.5949 147.072 47.3781 148.053 47.9242L148.46 51.1787C148.093 51.5187 147.623 51.7259 147.125 51.7671C146.405 51.7671 145.686 53.6835 145.686 53.6835C145.686 53.6835 145.278 53.889 144.839 54.8593C143.707 55.6291 140.254 58.0473 138.972 59.7372C138.215 60.1097 137.4 60.9384 137.533 62.7861C137.772 66.1397 137.533 81.7099 137.533 81.7099C137.533 81.7099 135.374 94.8848 136.094 95.8429C136.813 96.8011 135.854 99.9152 135.854 99.9152L136.573 100.075V100.873C136.573 100.873 134.409 110.893 137.772 110.455C143.288 109.736 139.211 101.592 139.211 101.592V100.66L140.17 100.873C140.17 100.873 140.65 97.5197 141.609 97.2802C141.943 97.1969 142.334 96.3015 142.703 95.1698C142.919 96.9353 143.048 97.9988 143.048 97.9988L144.549 97.6657L144.967 99.1965C145.07 99.2542 145.177 99.303 145.289 99.3424L144.967 101.113C144.967 101.113 144.727 103.029 144.967 104.227C145.087 104.831 149.539 117.742 153.922 130.393L153.839 133.451C153.839 133.451 151.681 135.847 152.161 137.523C152.64 139.2 150.962 153.094 150.962 153.094L149.523 160.04L149.885 160.152L149.553 161.369C149.266 161.513 149.012 161.713 148.803 161.957C146.885 164.113 144.487 170.341 144.487 170.341C144.487 170.341 140.17 176.808 146.885 176.569C153.6 176.329 154.079 173.934 154.079 173.934C154.079 173.934 155.038 167.706 155.038 167.466C155.038 167.227 154.559 164.764 154.559 164.764L154.373 164.559L154.503 161.571L155.758 161.957C155.758 161.957 156.957 155.729 157.916 155.01C158.251 154.759 159.143 151.961 160.162 148.368C161.202 151.361 162.21 161.713 162.538 162.653C162.422 162.811 162.32 162.979 162.233 163.154C161.155 165.221 159.953 167.22 158.635 169.143C158.635 169.143 150.962 173.694 158.635 174.892C158.635 174.892 162.952 175.132 165.11 173.694C167.268 172.257 173.024 170.101 173.024 169.622C173.024 169.143 171.585 162.1 170.146 162.867L169.182 160.653L170.146 160.28L164.075 133.058C164.218 132.478 164.324 131.889 164.391 131.295C164.391 130.041 167.496 105.615 168.286 99.4197C171.764 100.404 174.942 93.208 174.942 93.208L175.731 91.7905L176.861 92.4894C176.861 92.4894 177.82 90.0939 179.259 89.8544C180.698 89.6148 183.335 76.9191 183.335 75.2423C183.313 74.1658 183.069 73.1055 182.616 72.1282ZM171.443 90.8961C171.207 90.5218 170.933 90.1727 170.626 89.8543C171.253 88.2231 171.734 86.5398 172.065 84.8239C172.544 82.189 171.345 73.5655 171.345 73.5655L171.324 72.9798C172.501 74.5232 173.983 76.5808 173.983 77.1586C173.983 77.4375 174.048 77.7126 174.173 77.962C174.298 78.2115 174.479 78.4285 174.702 78.5958L173.264 83.6262C173.264 83.6262 172.304 86.0217 172.065 87.2194C171.921 87.9295 171.841 88.6509 171.825 89.3753L172.165 89.5854L171.443 90.8961Z" fill="#D0CDE1"/>
<path d="M72.8318 76.562L74.1114 76.2744L68.8357 61.4227L57.4449 57.2307C57.4449 57.2307 57.4013 57.2791 57.3207 57.3624C56.3491 56.4231 55.9367 55.0601 55.7645 53.9873C56.6805 53.6177 57.5036 53.0507 58.1749 52.3267C58.8463 51.6027 59.3493 50.7396 59.6483 49.799C59.9472 48.8584 60.0346 47.8635 59.9042 46.8853C59.7738 45.9071 59.4289 44.9697 58.894 44.14C59.8326 43.915 60.1677 43.0644 60.4828 42.0501C60.2877 41.9926 60.0888 41.9493 59.8874 41.9206C60.0351 41.59 60.1827 41.2594 60.3303 40.9287C60.0709 40.9055 59.8114 40.8822 59.552 40.8589C59.6184 40.5498 59.6847 40.2408 59.751 39.9317C59.4202 40.1598 59.0894 40.3879 58.7585 40.6161C58.8709 40.2916 58.8988 39.9439 58.8397 39.6057C58.7806 39.2674 58.6364 38.9498 58.4206 38.6825C57.9812 38.1522 57.4082 37.7486 56.7607 37.5134C55.4942 37.0157 54.1149 36.8762 52.7742 37.1102C51.4336 37.3443 50.1834 37.9428 49.161 38.8401L49.0893 38.561C47.0648 40.1156 45.74 42.4088 45.4056 44.9377C45.088 47.4374 46.2901 49.9827 47.8527 51.9608C47.8395 51.8745 47.8254 51.7883 47.8111 51.7023C47.8786 51.7953 47.9484 51.8864 48.0203 51.9758L48.2124 59.2669L47.7313 59.6787C47.7306 59.6791 39.6599 63.3264 39.3453 67.6828L39.3444 67.686C38.86 69.8067 38.6202 80.8257 38.6202 80.8257H39.2842L38.6202 85.1374L34.3037 101.905C34.3037 101.905 28.7881 109.092 33.5842 110.529C36.5646 111.422 37.4149 107.968 37.6317 105.224C37.8044 105.905 38.3208 106.364 39.3396 106.457C39.4198 106.464 39.5054 106.47 39.5882 106.477C37.3204 112.331 38.86 131.369 38.86 131.369C37.6609 133.765 51.8095 150.293 51.8095 150.293L52.6614 149.839L52.8458 150.207C52.3717 150.253 52.0493 150.293 52.0493 150.293V157.719C52.0493 157.719 49.891 165.145 52.7687 166.582C53.5133 166.954 54.29 166.683 55.0324 166.079C54.8905 168.371 54.6872 171.791 54.6872 172.57C54.6872 173.768 57.8046 175.924 57.8046 175.924C57.8046 175.924 58.5241 178.559 64.2794 178.559C70.0348 178.559 65.7183 171.612 65.7183 171.612L62.6008 164.666C62.6008 164.666 62.3675 164.78 61.6616 164.206L61.9144 161.428L63.3202 161.552L65.2386 133.525C65.2386 133.525 66.9173 108.613 67.1571 104.78C67.2133 103.551 67.1843 102.32 67.0704 101.095L74.1115 86.5747L72.8318 76.562ZM67.6367 85.8561L66.9173 88.3604V82.8219L67.6367 85.8561ZM37.6986 103.62C37.7046 102.742 37.6609 102.145 37.6609 102.145L42.3492 92.7789L42.2173 95.6773C42.2173 95.6773 38.4626 100.422 37.6986 103.62ZM48.692 130.651L53.2483 114.601L55.8862 134.004L55.6971 141.058C55.3758 140.41 55.118 139.732 54.927 139.035C54.2076 136.16 48.692 130.651 48.692 130.651Z" fill="#D0CDE1"/>
<path d="M113.587 168.775C111.34 167.851 106.978 165.871 106.449 164.814C105.921 163.758 103.277 155.573 103.277 155.573L102.597 155.622C102.509 151.904 102.134 137.492 101.559 135.769C101.559 135.769 104.335 112.929 98.7836 103.819L97.7834 99.7826C98.1116 98.1646 98.0696 94.4178 97.8584 93.785C97.594 92.9929 100.898 90.4844 99.9732 88.9001C99.048 87.3158 96.5367 81.9028 96.5367 81.9028C96.5367 81.9028 96.8011 78.4701 93.2324 75.3015C93.2324 75.3015 92.1896 69.4041 87.4903 69.3162C86.855 68.2087 85.9658 66.4478 86.2274 65.6637C86.5076 64.8242 87.5787 62.207 88.1837 60.7422C88.5051 60.5971 88.8137 60.4256 89.1064 60.2292C92.8438 58.5565 95.4785 54.5355 95.4785 49.8382C95.4785 44.8097 92.4603 40.5542 88.3011 39.1272C88.4863 38.6394 88.5621 38.117 88.523 37.5968C88.4839 37.0765 88.3309 36.5712 88.0749 36.1165C87.8188 35.6619 87.4659 35.2689 87.0411 34.9654C86.6164 34.6619 86.13 34.4553 85.6165 34.3602C85.103 34.265 84.5749 34.2837 84.0694 34.4149C83.5639 34.546 83.0934 34.7865 82.6911 35.1192C82.2889 35.4519 81.9647 35.8688 81.7415 36.3405C81.5182 36.8121 81.4014 37.3269 81.3992 37.8486C81.1705 37.307 81.0796 36.7173 81.1346 36.1321C81.1896 35.5469 81.3888 34.9844 81.7145 34.4948C82.0401 34.0052 82.482 33.6038 83.0008 33.3263C83.5196 33.0489 84.0991 32.9042 84.6876 32.9049C84.9192 32.9053 85.1502 32.928 85.3775 32.9729C84.5939 32.6007 83.7013 32.5266 82.867 32.7646C82.0327 33.0027 81.3139 33.5364 80.8453 34.2659C80.3768 34.9954 80.1906 35.8705 80.3217 36.7273C80.4528 37.584 80.8922 38.3637 81.5575 38.92C81.5986 39.0504 81.6472 39.1783 81.7031 39.303C77.7894 40.8806 74.9976 45.0019 74.9976 49.8382C74.9976 54.3242 77.4004 58.1939 80.8719 59.9901C80.8534 61.4494 80.4911 63.9096 78.4764 65.4089C77.4357 64.9339 75.9914 64.4125 75.0647 64.649C74.5855 64.2759 73.8623 64.1527 72.8783 65.1356C70.8957 67.116 69.1775 72.265 69.1775 75.4336C69.1775 78.6022 69.574 96.9536 69.574 96.9536C69.574 96.9536 67.4593 97.7458 68.9131 98.934C69.2134 99.1838 69.5902 99.3237 69.9809 99.3304L71.4244 110.024C71.4244 110.024 70.4992 120.322 74.0678 120.454C74.3476 120.469 74.6257 120.401 74.8666 120.258L72.2174 132.204C72.2174 132.204 66.1376 136.165 61.3795 143.955C58.9287 147.967 57.7069 150.435 57.0966 151.888L56.2248 151.348L53.1849 157.157C53.1849 157.157 46.4442 161.25 47.8981 164.286C49.352 167.323 50.6737 168.115 50.6737 168.115L51.5989 167.719L53.317 170.888C53.317 170.888 57.8108 177.357 65.0802 174.056C65.4214 173.598 65.6056 173.043 65.6056 172.472C65.6056 171.901 65.4214 171.346 65.0802 170.888C63.8907 169.171 60.8508 165.475 60.8508 165.475L62.8333 155.441L62.4231 155.187L74.993 139.994C74.993 139.994 78.6937 137.749 80.0155 135.769C81.3372 133.789 89.5317 113.325 89.5317 113.325L94.1576 134.713C94.1576 134.713 93.8933 142.502 95.0828 147.519C95.7312 150.333 96.154 153.195 96.3473 156.076L96.008 156.101L96.8011 162.042C96.8011 162.042 93.3647 170.492 95.7437 171.152C97.4363 171.588 99.1594 171.897 100.898 172.076L101.163 171.152C101.163 171.152 111.34 176.697 115.041 172.604C115.041 172.604 115.834 169.699 113.587 168.775ZM77.372 103.951C77.7685 104.347 77.6364 106.195 77.6364 106.195L76.8433 111.344L76.0513 114.916C75.9418 113.228 75.7207 111.55 75.3895 109.892L75.0236 100.025C75.0955 100.07 75.1745 100.103 75.2573 100.122C75.5216 100.122 75.3895 97.8778 75.3895 97.8778C75.3895 97.8778 75.5437 97.477 75.7362 96.8444C76.2501 98.3809 76.8774 99.3835 77.6363 99.5941L77.7685 101.31C77.7685 101.31 76.0503 102.103 77.6363 102.103C77.7284 102.099 77.8197 102.086 77.9088 102.062L77.7685 102.763C77.7685 102.763 76.9755 103.555 77.372 103.951Z" fill="#D0CDE1"/>
<path d="M111.328 174.926C170.006 174.926 217.574 174.142 217.574 173.176C217.574 172.21 170.006 171.427 111.328 171.427C52.6494 171.427 5.08142 172.21 5.08142 173.176C5.08142 174.142 52.6494 174.926 111.328 174.926Z" fill="#3F3D56"/>
<path d="M148.513 182.215C213.059 182.215 265.383 180.191 265.383 177.695C265.383 175.199 213.059 173.176 148.513 173.176C83.9675 173.176 31.6429 175.199 31.6429 177.695C31.6429 180.191 83.9675 182.215 148.513 182.215Z" fill="#3F3D56"/>
<path d="M126.943 188.921C158.62 188.921 184.299 186.897 184.299 184.401C184.299 181.905 158.62 179.882 126.943 179.882C95.2669 179.882 69.588 181.905 69.588 184.401C69.588 186.897 95.2669 188.921 126.943 188.921Z" fill="#3F3D56"/>
<path d="M209.839 192.128C223.944 192.128 235.379 191.083 235.379 189.795C235.379 188.507 223.944 187.463 209.839 187.463C195.733 187.463 184.299 188.507 184.299 189.795C184.299 191.083 195.733 192.128 209.839 192.128Z" fill="#3F3D56"/>
<path d="M174.812 200C181.502 200 186.926 198.956 186.926 197.667C186.926 196.379 181.502 195.335 174.812 195.335C168.123 195.335 162.699 196.379 162.699 197.667C162.699 198.956 168.123 200 174.812 200Z" fill="#3F3D56"/>
<path d="M76.1554 190.087C82.8454 190.087 88.2686 189.042 88.2686 187.754C88.2686 186.466 82.8454 185.422 76.1554 185.422C69.4655 185.422 64.0422 186.466 64.0422 187.754C64.0422 189.042 69.4655 190.087 76.1554 190.087Z" fill="#3F3D56"/>
<path d="M135.992 161.368L137.159 169.531L142.997 168.948L142.413 160.493L135.992 161.368Z" fill="#FFB8B8"/>
<path d="M108.263 161.368L107.095 169.531L101.258 168.948L101.841 160.493L108.263 161.368Z" fill="#FFB8B8"/>
<path d="M99.7981 76.8142C99.7981 76.8142 94.5441 82.937 95.7117 92.5586C96.8792 102.18 98.9224 124.048 98.9224 124.048L100.382 162.826L109.722 162.242L111.182 129.296L115.852 102.763L128.403 133.669C128.403 133.669 134.532 162.534 134.824 162.534C135.116 162.534 143.581 161.659 143.581 161.659L139.494 127.546C139.494 127.546 133.073 77.9804 129.278 77.1058C125.484 76.2311 99.7981 76.8142 99.7981 76.8142Z" fill="#2F2E41"/>
<path d="M143.581 167.782C143.581 167.782 138.327 164.283 136.284 168.365C134.24 172.447 135.992 175.363 135.992 175.363C135.992 175.363 137.743 176.529 136.867 177.695C135.992 178.862 135.7 186.442 143.289 185.276C150.878 184.11 147.083 176.238 147.083 176.238L143.581 167.782Z" fill="#2F2E41"/>
<path d="M100.674 167.782C100.674 167.782 105.928 164.283 107.971 168.365C110.014 172.447 108.263 175.363 108.263 175.363C108.263 175.363 106.511 176.529 107.387 177.695C108.263 178.862 108.555 186.442 100.966 185.276C93.3766 184.11 97.1711 176.238 97.1711 176.238L100.674 167.782Z" fill="#2F2E41"/>
<path d="M106.949 20.1049C106.949 20.1049 109.576 27.394 107.533 31.4759C105.49 35.5578 110.744 40.2229 110.744 40.2229C110.744 40.2229 124.462 33.2253 122.711 29.7265C120.96 26.2278 118.041 21.5627 118.625 18.6471L106.949 20.1049Z" fill="#FFB8B8"/>
<path d="M112.057 22.8748C117.216 22.8748 121.398 18.6976 121.398 13.5448C121.398 8.39193 117.216 4.21472 112.057 4.21472C106.899 4.21472 102.717 8.39193 102.717 13.5448C102.717 18.6976 106.899 22.8748 112.057 22.8748Z" fill="#FFB8B8"/>
<path d="M105.344 31.0386C105.344 31.0386 114.716 38.8287 121.705 27.7903L128.987 31.9132L132.781 76.231C132.781 76.231 111.473 88.4767 101.258 77.9804L102.717 36.8698L105.344 31.0386Z" fill="#D0CDE1"/>
<path d="M108.287 26.6746L95.1279 35.4119L99.7981 56.9876L93.6685 90.5175L103.593 75.6477L108.287 26.6746Z" fill="#575A89"/>
<path d="M119.917 24.2427L123.149 26.3736L136.284 31.0386L134.24 67.1926L139.786 90.5177L131.905 94.5996C131.905 94.5996 130.446 83.5201 121.398 77.9804C112.349 72.4407 117.852 25.9021 119.917 24.2427Z" fill="#575A89"/>
<path d="M98.0467 80.896L101.841 83.5201C101.841 83.5201 97.0252 88.6224 96.1495 87.7478C95.8961 87.5047 95.6993 87.2089 95.5732 86.8814C95.4471 86.5539 95.3947 86.2026 95.4198 85.8526L94.5441 83.8116L98.0467 80.896Z" fill="#FFB8B8"/>
<path d="M123.271 80.3289L121.981 82.3539C121.981 82.3539 118.187 84.1033 119.062 85.2695C119.938 86.4358 127.235 89.0599 128.695 86.4358L130.154 83.8117L123.271 80.3289Z" fill="#FFB8B8"/>
<path d="M96.8792 35.1205L94.836 35.412L91.4793 57.1336C91.4793 57.1336 90.1659 61.0697 91.6253 70.3997C93.0847 79.7298 94.5299 85.8053 94.5299 85.8053L100.966 81.1876L98.0468 73.6069L101.841 45.9084L96.8792 35.1205Z" fill="#575A89"/>
<path d="M131.614 30.4554L136.284 31.0386C136.284 31.0386 141.538 36.5783 142.413 42.4096C143.289 48.2408 142.997 64.86 142.997 64.86L129.57 86.1442L122.273 80.896L132.489 62.819L127.527 41.2433L131.614 30.4554Z" fill="#575A89"/>
<path d="M120.964 5.10615C119.552 2.81506 117.341 1.12678 114.757 0.366235L112.859 1.88275L113.597 0.113906C112.977 0.0193561 112.349 -0.0168977 111.722 0.00561893L110.014 2.19855L110.721 0.0807344C109.239 0.264656 107.812 0.753238 106.529 1.51567C105.245 2.2781 104.134 3.29784 103.265 4.5106C101.092 7.64071 100.725 11.9937 102.863 15.1483C103.45 13.3471 104.162 11.657 104.749 9.85584C105.21 9.91863 105.677 9.92091 106.139 9.8626L106.853 8.19875L107.052 9.79223C109.265 9.59965 112.547 9.17692 114.644 8.78957L114.44 7.56715L115.661 8.58298C116.303 8.43518 116.685 8.30118 116.653 8.19875C118.213 10.711 119.759 12.3156 121.319 14.8278C121.911 11.2842 122.957 8.33871 120.964 5.10615Z" fill="#2F2E41"/>
<path d="M120.447 14.5148C120.796 14.5148 121.079 13.9493 121.079 13.2516C121.079 12.554 120.796 11.9884 120.447 11.9884C120.098 11.9884 119.815 12.554 119.815 13.2516C119.815 13.9493 120.098 14.5148 120.447 14.5148Z" fill="#FFB8B8"/>
<path d="M221.476 178.156C221.745 187.357 216.362 190.729 209.608 190.926C209.451 190.931 209.295 190.934 209.139 190.935C208.826 190.937 208.516 190.932 208.209 190.919C202.1 190.666 197.265 187.427 197.014 178.87C196.756 170.014 207.759 158.508 208.585 157.657L208.586 157.656C208.618 157.624 208.634 157.607 208.634 157.607C208.634 157.607 221.207 168.956 221.476 178.156Z" fill="#4EA584"/>
<path d="M209.122 189.532L213.412 183.158L209.13 190.218L209.139 190.935C208.826 190.937 208.516 190.932 208.209 190.919L208.422 181.7L208.416 181.629L208.424 181.615L208.444 180.744L203.745 173.93L208.438 180.092L208.455 180.276L208.616 173.311L204.557 166.246L208.627 172.087L208.585 157.657L208.585 157.609L208.586 157.656L208.856 169.029L212.555 164.409L208.868 170.009L208.949 176.239L212.352 170.159L208.961 177.155L209.006 180.62L213.956 172.15L209.021 181.828L209.122 189.532Z" fill="#3F3D56"/>
<path d="M65.0252 164.453C65.2942 173.654 59.9121 177.026 53.1576 177.223C53.0007 177.227 52.8445 177.23 52.6891 177.231C52.3758 177.234 52.0656 177.229 51.7585 177.216C45.6498 176.962 40.8143 173.723 40.5642 165.166C40.3053 156.311 51.309 144.804 52.1346 143.953L52.1361 143.953C52.1674 143.92 52.1835 143.904 52.1835 143.904C52.1835 143.904 64.7562 155.252 65.0252 164.453Z" fill="#4EA584"/>
<path d="M52.6713 175.828L56.962 169.455L52.6801 176.514L52.6891 177.231C52.3758 177.234 52.0656 177.228 51.7585 177.216L51.9713 167.997L51.9654 167.925L51.9733 167.912L51.9937 167.041L47.2949 160.226L51.9881 166.389L52.0048 166.573L52.1655 159.607L48.107 152.542L52.1771 158.384L52.1346 143.953L52.1347 143.905L52.1361 143.953L52.4055 155.326L56.1043 150.706L52.4176 156.305L52.4983 162.536L55.902 156.455L52.5108 163.452L52.5558 166.916L57.5056 158.446L52.5708 168.125L52.6713 175.828Z" fill="#3F3D56"/>
<path d="M181.93 191.128C182.088 196.529 178.929 198.508 174.964 198.624C174.872 198.627 174.78 198.628 174.689 198.629C174.505 198.63 174.323 198.627 174.143 198.62C170.557 198.471 167.719 196.57 167.572 191.547C167.42 186.349 173.879 179.595 174.364 179.095L174.365 179.095C174.383 179.076 174.393 179.066 174.393 179.066C174.393 179.066 181.772 185.728 181.93 191.128Z" fill="#4EA584"/>
<path d="M174.679 197.805L177.197 194.064L174.684 198.208L174.689 198.629C174.505 198.63 174.323 198.627 174.143 198.62L174.268 193.208L174.265 193.167L174.269 193.158L174.281 192.647L171.523 188.647L174.278 192.264L174.288 192.372L174.382 188.284L172 184.137L174.389 187.566L174.364 179.095L174.364 179.067L174.365 179.095L174.523 185.771L176.694 183.059L174.53 186.346L174.577 190.003L176.575 186.434L174.585 190.541L174.611 192.574L177.516 187.602L174.62 193.283L174.679 197.805Z" fill="#3F3D56"/>
<path d="M279.974 14.9243C279.983 14.8977 279.992 14.8708 280 14.8441C279.996 14.8558 279.992 14.8671 279.988 14.8788L279.974 14.9243Z" fill="#2F2E41"/>
<path d="M239.186 169.634L260.805 137.52L239.23 173.089L239.275 176.703C237.697 176.715 236.134 176.689 234.586 176.624L235.658 130.172L235.629 129.814L235.668 129.745L235.771 125.355L212.095 91.0188L235.743 122.07L235.827 122.998L236.637 87.9017L216.188 52.3025L236.695 81.7363L236.481 9.02593L236.482 8.78394L236.489 9.02194L237.846 66.3275L256.483 43.0499L237.907 71.2642L238.314 102.657L255.464 72.0189L238.377 107.272L238.603 124.728L263.544 82.0497L238.679 130.818L239.186 169.634Z" fill="#3F3D56"/>
<path d="M18.4341 168.39L33.1454 146.536L18.4641 170.741L18.4948 173.2C17.4209 173.208 16.3573 173.19 15.3042 173.146L16.0338 141.537L16.0139 141.293L16.0408 141.246L16.1106 138.259L0 114.894L16.0916 136.023L16.1487 136.655L16.6998 112.773L2.7846 88.5486L16.7395 108.577L16.5938 59.1001L16.5941 58.9354L16.5989 59.0974L17.5226 98.0922L30.2047 82.2525L17.5641 101.451L17.8409 122.813L29.511 101.965L17.8838 125.954L18.0379 137.832L35.0094 108.791L18.0894 141.976L18.4341 168.39Z" fill="#3F3D56"/>
</g>
<defs>
<clipPath id="clip0">
<rect width="280" height="200" fill="white"/>
</clipPath>
</defs>
</svg>
