<svg width="541" height="400" viewBox="0 0 541 400" fill="none" xmlns="http://www.w3.org/2000/svg">
<g clip-path="url(#clip0)">
<path d="M388.853 237.294L393.104 234.674C393.508 234.418 393.907 234.145 394.316 233.889C385.199 232.323 376.891 227.693 370.767 220.767C364.642 213.841 361.069 205.033 360.639 195.802C360.327 189.453 361.528 183.121 364.145 177.327C366.581 171.906 370.178 167.084 374.682 163.202C379.186 159.321 384.488 156.473 390.213 154.861L390.003 171.574L399.193 153.383C399.231 153.377 399.269 153.377 399.307 153.383C404.633 153.135 409.955 153.937 414.971 155.743C419.986 157.55 424.596 160.325 428.538 163.912C432.48 167.498 435.675 171.825 437.943 176.645C440.21 181.465 441.505 186.684 441.754 192.005C441.788 192.778 441.754 193.539 441.754 194.278C444.952 190.635 447.854 186.729 449.778 182.449C453.67 173.78 453.761 163.962 453.437 152.03C452.822 128.382 451.803 104.558 450.472 80.8015C440.876 79.737 431.975 75.2891 425.367 68.2571C418.759 61.225 414.878 52.0697 414.422 42.4359C414.365 41.1909 414.382 39.9687 414.422 38.7522C414.422 38.4509 414.421 38.144 414.467 37.8427C414.547 36.666 414.655 35.5006 414.837 34.3523C414.837 34.159 414.905 33.9771 414.939 33.7838C415.106 32.8099 415.305 31.8473 415.537 30.896C415.628 30.5436 415.713 30.1855 415.81 29.833C416.095 28.7984 416.379 27.7809 416.772 26.7747C416.891 26.4393 417.034 26.1153 417.159 25.7855C417.449 25.0465 417.762 24.3189 418.092 23.597C418.268 23.2161 418.439 22.8409 418.627 22.46C418.672 22.3634 418.712 22.2667 418.763 22.1701C423.048 13.7161 430.163 7.02924 438.871 3.27177C447.579 -0.485691 457.33 -1.07614 466.428 1.60307L466.155 23.3525L475.26 5.38904C482.729 9.65946 488.635 16.2034 492.116 24.065C495.596 31.9267 496.47 40.6941 494.608 49.0869H494.654C494.591 49.3768 494.5 49.6554 494.432 49.9396C494.307 50.474 494.17 51.0026 494.022 51.5313C493.829 52.2078 493.613 52.8729 493.391 53.538C493.22 54.0326 493.055 54.5385 492.867 55.0274C492.594 55.7436 492.298 56.4428 491.968 57.142C491.786 57.5513 491.621 57.9663 491.399 58.3699C490.879 59.4159 490.31 60.4391 489.692 61.4396C489.481 61.7864 489.242 62.1161 489.02 62.4629C488.588 63.1337 488.15 63.7988 487.677 64.4468C487.387 64.8447 487.074 65.2256 486.767 65.6179C486.323 66.1863 485.868 66.7548 485.395 67.2721C485.06 67.653 484.718 68.0281 484.365 68.409C483.87 68.932 483.358 69.4379 482.829 69.9382C482.482 70.2736 482.129 70.609 481.765 70.9273C481.167 71.456 480.541 71.9619 479.909 72.4565C479.591 72.7066 479.283 72.9681 478.953 73.2069C477.994 73.9193 477.002 74.5882 475.977 75.2135C475.784 75.3272 475.579 75.4239 475.408 75.5376C474.555 76.0435 473.701 76.5153 472.785 76.9587C472.404 77.1463 472.005 77.3112 471.613 77.4874C470.878 77.8171 470.139 78.1354 469.382 78.4254C468.944 78.5902 468.494 78.7437 468.044 78.8972C467.299 79.153 466.542 79.3861 465.768 79.5964C465.313 79.7215 464.863 79.8465 464.402 79.9545C463.572 80.1535 462.724 80.3183 461.87 80.4605C461.813 80.4605 461.762 80.4605 461.705 80.4946C462.267 90.5147 462.765 100.541 463.202 110.572C465.622 105.608 469.032 101.191 473.223 97.591C477.414 93.991 482.296 91.2842 487.572 89.6368C492.847 87.9893 498.404 87.4359 503.901 88.0105C509.398 88.585 514.719 90.2754 519.539 92.978L512.363 112.619L527.125 98.4581C535.027 105.693 539.734 115.764 540.213 126.461C540.401 130.214 540.054 133.975 539.183 137.631C537.329 145.543 533.137 152.715 527.152 158.217C521.167 163.72 513.664 167.298 505.618 168.489C497.572 169.68 489.353 168.427 482.028 164.894C474.703 161.361 468.61 155.711 464.539 148.676C464.539 149.694 464.613 150.717 464.641 151.735C464.909 162.263 465.245 175.36 459.992 187.059C456.436 194.989 450.705 201.43 445.043 207.2C441.361 210.957 437.543 214.59 433.627 218.108C429.778 223.272 424.753 227.446 418.968 230.285C412.538 235.234 405.88 239.869 398.994 244.19L394.812 246.884C390.948 249.277 386.987 251.733 383.1 254.274C383.783 254.206 384.46 254.132 385.155 254.104C393.758 253.701 402.266 256.041 409.451 260.785C416.636 265.53 422.125 272.433 425.126 280.497L399.757 301.127L427.641 294.664C427.633 301.521 425.886 308.265 422.561 314.265C419.237 320.266 414.444 325.326 408.631 328.974C402.817 332.622 396.173 334.738 389.319 335.125C382.465 335.512 375.625 334.158 369.437 331.187C370.063 331.972 370.695 332.751 371.321 333.53C372.567 335.081 373.807 336.622 375.019 338.151C391.522 359.031 396.12 378.859 387.943 393.974L378.007 388.608C385.974 373.896 374.024 355.069 366.153 345.143C364.964 343.642 363.746 342.13 362.517 340.596C351.972 327.521 340.022 312.673 340.324 294.476C340.75 267.076 367.434 250.551 388.853 237.294Z" fill="#4EA584"/>
<path d="M259.209 400C402.366 400 518.418 394.655 518.418 388.062C518.418 381.469 402.366 376.124 259.209 376.124C116.052 376.124 0 381.469 0 388.062C0 394.655 116.052 400 259.209 400Z" fill="#3F3D56"/>
<path d="M468.619 383.611C470.326 380.479 468.392 376.642 466.184 373.845C463.976 371.048 461.284 368.16 461.341 364.585C461.421 359.468 466.855 356.45 471.203 353.738C474.422 351.724 477.393 349.337 480.052 346.627C481.168 345.584 482.091 344.352 482.778 342.989C483.671 340.988 483.648 338.714 483.591 336.52C483.402 329.22 483.041 321.929 482.51 314.645" stroke="#3F3D56" stroke-width="4" stroke-miterlimit="10"/>
<path d="M490.767 314.258C490.704 312.923 490.306 311.625 489.61 310.483C488.914 309.34 487.942 308.391 486.784 307.721L484.997 311.257L485.048 306.982C483.826 306.616 482.534 306.549 481.28 306.786C480.027 307.023 478.848 307.557 477.844 308.344C476.841 309.131 476.041 310.147 475.512 311.306C474.983 312.466 474.74 313.736 474.805 315.009C474.905 317.12 475.839 319.104 477.404 320.526C478.179 321.231 479.085 321.775 480.07 322.13C481.056 322.484 482.101 322.641 483.147 322.592C484.194 322.543 485.22 322.288 486.168 321.843C487.115 321.397 487.966 320.77 488.671 319.996C489.376 319.222 489.921 318.317 490.276 317.333C490.631 316.348 490.788 315.304 490.739 314.258H490.767Z" fill="#57B793"/>
<path d="M476.524 368.263C475.687 369.885 474.318 371.172 472.645 371.906C470.972 372.64 469.098 372.778 467.336 372.296C465.573 371.814 464.031 370.741 462.966 369.258C461.901 367.775 461.379 365.971 461.487 364.149C461.595 362.327 462.327 360.597 463.56 359.25C464.793 357.903 466.452 357.02 468.258 356.749C470.065 356.479 471.911 356.837 473.485 357.763C475.059 358.69 476.266 360.129 476.905 361.839L471.92 365.892L477.406 364.619C477.406 365.886 477.104 367.135 476.524 368.263V368.263Z" fill="#57B793"/>
<path d="M472.58 352.749C471.532 352.8 470.485 352.643 469.498 352.288C468.51 351.933 467.603 351.386 466.828 350.68C466.053 349.974 465.425 349.122 464.981 348.173C464.536 347.223 464.283 346.196 464.237 345.149C464.174 343.901 464.41 342.655 464.926 341.516C465.404 340.45 466.111 339.501 466.996 338.737C467.88 337.973 468.922 337.412 470.048 337.094L470.008 340.385L471.817 336.804C473.934 336.705 476.003 337.45 477.57 338.876C479.137 340.301 480.072 342.29 480.171 344.404C480.27 346.519 479.524 348.586 478.097 350.151C476.67 351.716 474.68 352.65 472.563 352.749H472.58Z" fill="#57B793"/>
<path d="M491.968 339.839C489.855 339.939 487.789 339.196 486.224 337.774C484.66 336.352 483.725 334.367 483.625 332.256C483.526 330.145 484.27 328.082 485.693 326.519C487.117 324.956 489.104 324.022 491.217 323.922C492.71 323.849 494.194 324.2 495.496 324.934L494.085 328.8L496.987 326.014C498.544 327.436 499.474 329.417 499.571 331.523C499.607 332.26 499.538 332.999 499.366 333.717C498.967 335.403 498.03 336.912 496.694 338.017C495.359 339.122 493.7 339.762 491.968 339.839V339.839Z" fill="#57B793"/>
<path opacity="0.1" d="M489.692 316.362C487.848 316.566 486.055 317.141 484.206 317.254C482.357 317.368 480.325 316.925 479.153 315.486C478.521 314.713 478.208 313.735 477.673 312.894C477.169 312.108 476.479 311.458 475.664 311.001C475.182 312.007 474.918 313.104 474.887 314.219C474.857 315.334 475.061 316.443 475.488 317.474C475.914 318.505 476.552 319.434 477.361 320.203C478.171 320.972 479.132 321.562 480.185 321.935C481.237 322.308 482.356 322.457 483.469 322.37C484.582 322.284 485.665 321.964 486.647 321.433C487.628 320.902 488.487 320.17 489.168 319.285C489.848 318.401 490.335 317.384 490.596 316.299C490.289 316.311 489.988 316.333 489.692 316.362Z" fill="black"/>
<path opacity="0.1" d="M491.968 339.839C490.59 339.909 489.219 339.621 487.986 339.002C486.754 338.383 485.704 337.455 484.938 336.31C484.172 335.164 483.717 333.839 483.618 332.465C483.519 331.09 483.778 329.714 484.371 328.47C485.005 328.898 485.55 329.444 485.976 330.079C486.545 330.937 486.886 331.926 487.558 332.717C488.798 334.177 490.927 334.655 492.856 334.564C494.785 334.473 496.64 333.933 498.546 333.757C498.808 333.757 499.081 333.711 499.349 333.706C498.953 335.391 498.019 336.901 496.687 338.008C495.355 339.115 493.698 339.758 491.968 339.839Z" fill="black"/>
<path opacity="0.1" d="M472.58 352.749C471.532 352.8 470.485 352.643 469.498 352.288C468.51 351.933 467.603 351.386 466.828 350.68C466.053 349.974 465.425 349.122 464.981 348.173C464.536 347.223 464.283 346.196 464.237 345.149C464.174 343.901 464.41 342.655 464.926 341.516C465.588 341.949 466.167 342.498 466.633 343.136C467.254 344.012 467.64 345.018 468.34 345.825C469.689 347.326 471.954 347.855 473.997 347.804C476.04 347.752 477.878 347.275 479.847 347.127C479.361 348.697 478.403 350.079 477.102 351.085C475.802 352.091 474.223 352.672 472.58 352.749Z" fill="black"/>
<path opacity="0.1" d="M476.523 368.263C476.094 369.218 475.48 370.079 474.717 370.797C473.954 371.515 473.057 372.077 472.077 372.448C471.097 372.82 470.054 372.996 469.006 372.965C467.958 372.934 466.926 372.697 465.97 372.267C465.014 371.838 464.152 371.225 463.433 370.463C462.714 369.701 462.152 368.805 461.78 367.826C461.408 366.847 461.232 365.804 461.263 364.758C461.294 363.711 461.531 362.68 461.961 361.725C462.617 362.161 463.207 362.687 463.714 363.289C464.471 364.215 464.972 365.261 465.854 366.131C467.487 367.728 470.122 368.405 472.466 368.45C473.821 368.468 475.176 368.405 476.523 368.263V368.263Z" fill="black"/>
<path d="M456.578 380.001C456.578 380.001 462.877 379.808 464.778 378.455C466.679 377.102 474.452 375.488 474.947 377.659C475.442 379.831 484.422 388.46 477.303 388.494C470.184 388.528 460.766 387.357 458.871 386.22C456.976 385.083 456.578 380.001 456.578 380.001Z" fill="#656380"/>
<path opacity="0.2" d="M477.428 387.738C470.315 387.795 460.891 386.601 458.996 385.464C457.557 384.589 456.976 381.434 456.788 379.979H456.578C456.578 379.979 456.976 385.055 458.854 386.232C460.732 387.408 470.167 388.551 477.286 388.506C479.34 388.506 480.052 387.755 480.012 386.675C479.744 387.318 478.959 387.727 477.428 387.738Z" fill="black"/>
<path d="M110.632 366.074C106.5 358.434 111.201 349.077 116.573 342.267C121.945 335.457 128.523 328.373 128.381 319.693C128.176 307.221 114.928 299.859 104.344 293.248C96.4895 288.342 89.2442 282.524 82.7591 275.916C80.1585 273.261 77.6375 270.43 76.1238 267.042C73.9386 262.164 73.9955 256.622 74.1378 251.278C74.593 233.466 75.4732 215.689 76.7782 197.945" stroke="#3F3D56" stroke-width="4" stroke-miterlimit="10"/>
<path d="M56.6504 196.973C56.8062 193.719 57.7779 190.556 59.4762 187.775C61.1745 184.994 63.545 182.683 66.37 181.056L70.7291 189.668L70.5982 179.243C74.5583 178.077 78.7867 178.199 82.6731 179.59C86.5594 180.982 89.9024 183.571 92.2195 186.984C94.5366 190.398 95.7078 194.458 95.564 198.58C95.4202 202.701 93.9688 206.671 91.4194 209.914C88.8701 213.158 85.3547 215.509 81.3808 216.627C77.4069 217.745 73.1802 217.572 69.311 216.134C65.4417 214.695 62.1302 212.066 59.8545 208.625C57.5789 205.184 56.4568 201.11 56.6504 196.99V196.973Z" fill="#57B793"/>
<path d="M91.3747 328.607C93.3324 332.418 96.4953 335.476 100.372 337.307C104.249 339.138 108.622 339.639 112.813 338.731C117.004 337.824 120.777 335.559 123.547 332.289C126.317 329.019 127.928 324.927 128.131 320.648C128.267 317.958 127.834 315.27 126.862 312.758C125.44 309.073 122.929 305.908 119.664 303.683C116.398 301.459 112.532 300.279 108.579 300.302C104.626 300.325 100.774 301.549 97.534 303.811C94.2943 306.074 91.8205 309.267 90.4415 312.968L102.602 322.848L89.2237 319.739C89.2181 322.824 89.9559 325.866 91.3747 328.607Z" fill="#57B793"/>
<path d="M100.986 290.849C105.76 291.067 110.448 289.524 114.157 286.513C117.866 283.502 120.337 279.234 121.1 274.521C121.862 269.808 120.863 264.979 118.293 260.954C115.723 256.93 111.76 253.989 107.161 252.694L107.263 260.703L102.881 251.989H102.83C97.6706 251.748 92.6269 253.565 88.8085 257.04C84.99 260.514 82.7096 265.361 82.4689 270.515C82.2282 275.669 84.0468 280.707 87.5248 284.522C91.0029 288.336 95.8553 290.614 101.015 290.855L100.986 290.849Z" fill="#57B793"/>
<path d="M53.7197 259.43C56.7342 259.577 59.7415 259.022 62.5043 257.808C65.2672 256.595 67.7099 254.757 69.6397 252.439C71.5694 250.121 72.9334 247.386 73.6241 244.452C74.3147 241.517 74.3129 238.462 73.619 235.528C72.9251 232.594 71.558 229.861 69.6256 227.545C67.6933 225.229 65.2485 223.394 62.4843 222.184C59.7201 220.973 56.7121 220.421 53.6979 220.572C50.6836 220.722 47.7455 221.57 45.1155 223.048L48.5299 232.468L41.4791 225.663C39.5943 227.377 38.0662 229.445 36.9824 231.749C35.8985 234.053 35.2801 236.547 35.1625 239.09C35.0721 240.89 35.2388 242.693 35.6576 244.445C36.6255 248.566 38.913 252.259 42.1728 254.964C45.4326 257.668 49.4867 259.236 53.7197 259.43V259.43Z" fill="#57B793"/>
<path opacity="0.1" d="M59.2681 202.157C63.7637 202.652 68.1341 204.045 72.6411 204.323C77.1481 204.602 82.1047 203.527 84.9557 200.026C86.4922 198.138 87.2604 195.751 88.5579 193.693C89.7873 191.775 91.4725 190.192 93.4632 189.083C94.7029 191.548 95.4035 194.248 95.5186 197.004C95.6337 199.76 95.1607 202.51 94.1309 205.069C93.1011 207.629 91.5381 209.94 89.5457 211.85C87.5532 213.761 85.1769 215.225 82.5743 216.148C79.9718 217.07 77.2026 217.429 74.4506 217.201C71.6985 216.973 69.0265 216.162 66.612 214.824C64.1974 213.485 62.0955 211.649 60.4457 209.436C58.796 207.224 57.6361 204.687 57.0431 201.992C57.7999 202.027 58.5397 202.078 59.2681 202.157Z" fill="black"/>
<path opacity="0.1" d="M53.7197 259.43C57.0751 259.585 60.4136 258.87 63.411 257.356C66.4084 255.841 68.963 253.579 70.8269 250.787C72.6908 247.996 73.8006 244.77 74.0487 241.424C74.2968 238.078 73.6747 234.724 72.2428 231.689C70.6968 232.728 69.3672 234.056 68.3276 235.6C66.9391 237.692 66.1026 240.108 64.4694 242.029C61.4362 245.588 56.2578 246.753 51.5573 246.543C46.8568 246.333 42.3214 244.991 37.6436 244.565C36.9949 244.508 36.3348 244.462 35.6804 244.445C36.6472 248.563 38.9313 252.253 42.1865 254.957C45.4418 257.661 49.4907 259.232 53.7197 259.43V259.43Z" fill="black"/>
<path opacity="0.1" d="M100.986 290.849C104.309 291.005 107.616 290.308 110.593 288.824C113.569 287.34 116.115 285.119 117.988 282.373C119.861 279.627 120.998 276.448 121.291 273.138C121.585 269.828 121.024 266.498 119.663 263.466C118.06 264.53 116.665 265.879 115.549 267.445C114.035 269.577 113.09 272.033 111.32 274C108.037 277.655 102.517 278.945 97.5377 278.826C92.7177 278.724 88.0742 277.541 83.2826 277.172C84.4689 280.993 86.8049 284.356 89.9726 286.803C93.1404 289.25 96.986 290.663 100.986 290.849V290.849Z" fill="black"/>
<path opacity="0.1" d="M91.3748 328.607C93.3324 332.418 96.4953 335.476 100.372 337.307C104.249 339.138 108.622 339.639 112.813 338.731C117.004 337.824 120.777 335.559 123.547 332.289C126.317 329.019 127.928 324.927 128.131 320.648C128.267 317.958 127.834 315.27 126.862 312.758C125.26 313.809 123.821 315.09 122.594 316.561C120.744 318.835 119.521 321.37 117.381 323.473C113.398 327.373 106.973 328.987 101.254 329.158C97.9527 329.169 94.6539 328.985 91.3748 328.607V328.607Z" fill="black"/>
<path d="M245.392 377.432L170.276 392.78L168.568 392.61L102.557 385.959V302.395L183.364 288.751L241.978 295.573L241.995 295.943L242.001 296.124L245.392 377.432Z" fill="#C6D2E6"/>
<path opacity="0.1" d="M245.392 377.432L170.276 392.78L168.568 392.61V306.942L241.995 295.943L245.392 377.432Z" fill="black"/>
<path opacity="0.05" d="M242.001 296.124L241.978 296.142L168.568 306.942L102.557 302.395L183.364 288.751L241.978 295.573L241.995 295.943L242.001 296.124Z" fill="black"/>
<path d="M327.907 380.843L252.79 396.191L251.083 396.021L185.071 389.37V305.805L265.878 292.162L324.492 298.984L324.509 299.353L324.515 299.535L327.907 380.843Z" fill="#3F3D56"/>
<path opacity="0.1" d="M327.907 380.843L252.79 396.191L251.083 396.021V310.353L324.509 299.353L327.907 380.843Z" fill="black"/>
<path opacity="0.05" d="M324.515 299.535L324.492 299.552L251.083 310.353L185.071 305.805L265.879 292.162L324.492 298.984L324.509 299.353L324.515 299.535Z" fill="black"/>
<path d="M276.122 298.984L201.005 314.332L199.298 314.162L133.286 307.511V223.947L214.094 210.303L272.707 217.125L272.724 217.494L272.73 217.676L276.122 298.984Z" fill="#3F3D56"/>
<path opacity="0.1" d="M276.122 298.984L201.005 314.332L199.298 314.162V228.494L272.724 217.494L276.122 298.984Z" fill="black"/>
<path opacity="0.05" d="M272.73 217.676L272.707 217.693L199.298 228.494L133.286 223.947L214.094 210.303L272.707 217.125L272.724 217.494L272.73 217.676Z" fill="black"/>
<path d="M318.801 302.486L279.599 310.501L278.705 310.41L244.254 306.937V263.324L286.427 256.201L317.02 259.766L317.032 259.959V260.05L318.801 302.486Z" fill="#3F3D56"/>
<path opacity="0.1" d="M318.802 302.486L279.599 310.501L278.705 310.41V265.7L317.032 259.959L318.802 302.486Z" fill="black"/>
<path opacity="0.05" d="M317.032 260.05L317.02 260.061L278.705 265.7L244.254 263.324L286.427 256.201L317.02 259.766L317.032 259.959V260.05Z" fill="black"/>
<path d="M213.525 217.784L174.322 225.794L173.428 225.709L138.977 222.235V178.623L181.15 171.5L211.743 175.064L211.755 175.258V175.349L213.525 217.784Z" fill="#3F3D56"/>
<path opacity="0.1" d="M213.525 217.784L174.322 225.794L173.428 225.709V180.999L211.755 175.258L213.525 217.784Z" fill="black"/>
<path opacity="0.05" d="M211.755 175.349L211.743 175.36L173.428 180.999L138.977 178.623L181.15 171.5L211.743 175.064L211.755 175.258V175.349Z" fill="black"/>
<path d="M282.381 216.079L243.179 224.089L242.285 224.003L207.834 220.53V176.918L250.007 169.795L280.6 173.359L280.612 173.552V173.643L282.381 216.079Z" fill="#C6D2E6"/>
<path opacity="0.1" d="M282.381 216.079L243.178 224.089L242.285 224.003V179.294L280.612 173.552L282.381 216.079Z" fill="black"/>
<path opacity="0.05" d="M280.612 173.643L280.6 173.655L242.285 179.294L207.834 176.917L250.007 169.795L280.6 173.359L280.612 173.552V173.643Z" fill="black"/>
<path d="M302.868 172.307L263.665 180.317L262.771 180.232L228.32 176.758V133.146L270.494 126.023L301.087 129.587L301.098 129.78V129.871L302.868 172.307Z" fill="#3F3D56"/>
<path opacity="0.1" d="M302.868 172.307L263.665 180.317L262.771 180.232V135.522L301.098 129.78L302.868 172.307Z" fill="black"/>
<path opacity="0.05" d="M301.098 129.871L301.087 129.883L262.771 135.522L228.32 133.146L270.494 126.023L301.087 129.587L301.098 129.78V129.871Z" fill="black"/>
<path d="M329.568 83.1493C329.153 86.8443 326.33 89.8231 325.283 93.3817C323.713 98.7536 326.421 104.524 330.154 108.73C333.163 112.073 336.805 114.786 340.871 116.712C344.937 118.638 349.344 119.739 353.839 119.952C355.159 120.065 356.489 119.92 357.754 119.525C358.88 119.067 359.895 118.373 360.73 117.49C363.53 114.676 365.038 110.782 365.636 106.854C366.233 102.926 366.005 98.9299 365.772 94.9677C365.772 94.1477 365.621 93.3347 365.328 92.5687C364.947 91.8403 364.423 91.1964 363.786 90.6758C361.768 88.8229 359.543 87.2074 357.157 85.8609C356.132 85.2924 355.034 84.7239 354.379 83.7405C353.93 82.9574 353.639 82.0942 353.52 81.1995L352.786 77.4703C352.656 76.3951 352.289 75.3622 351.711 74.4461C350.419 72.7066 347.943 72.4678 345.775 72.3826L337.808 72.0699C335.333 71.9733 332.078 71.2627 329.659 71.7516C327.383 72.2007 328.151 74.2813 328.561 76.1686C329.154 78.4512 329.492 80.7924 329.568 83.1493V83.1493Z" fill="#FFC0C6"/>
<path opacity="0.1" d="M329.568 83.1493C329.153 86.8443 326.33 89.8231 325.283 93.3817C323.713 98.7536 326.421 104.524 330.154 108.73C333.163 112.073 336.805 114.786 340.871 116.712C344.937 118.638 349.344 119.739 353.839 119.952C355.159 120.065 356.489 119.92 357.754 119.525C358.88 119.067 359.895 118.373 360.73 117.49C363.53 114.676 365.038 110.782 365.636 106.854C366.233 102.926 366.005 98.9299 365.772 94.9677C365.772 94.1477 365.621 93.3347 365.328 92.5687C364.947 91.8403 364.423 91.1964 363.786 90.6758C361.768 88.8229 359.543 87.2074 357.157 85.8609C356.132 85.2924 355.034 84.7239 354.379 83.7405C353.93 82.9574 353.639 82.0942 353.52 81.1995L352.786 77.4703C352.656 76.3951 352.289 75.3622 351.711 74.4461C350.419 72.7066 347.943 72.4678 345.775 72.3826L337.808 72.0699C335.333 71.9733 332.078 71.2627 329.659 71.7516C327.383 72.2007 328.151 74.2813 328.561 76.1686C329.154 78.4512 329.492 80.7924 329.568 83.1493V83.1493Z" fill="black"/>
<path d="M380.164 249.573L376.784 286.591C375.901 296.301 375.002 306.05 373.272 315.634C372.703 318.937 371.975 322.223 371.144 325.48C368.834 334.524 365.482 343.364 364.401 352.636C364.367 352.903 364.338 353.204 364.31 353.448C364.088 355.495 363.894 357.564 363.172 359.474C362.602 360.89 361.8 362.18 361.214 363.578C360.076 366.375 359.894 369.468 359.751 372.498C355.649 370.184 351.157 368.643 346.498 367.95C344.222 367.615 341.746 367.381 340.238 365.676C338.531 363.823 338.73 360.986 339.015 358.496C339.91 350.765 340.802 343.038 341.689 335.314C341.985 331.991 342.556 328.698 343.397 325.469C343.704 324.394 344.074 323.337 344.449 322.28C344.967 320.824 345.491 319.369 345.883 317.874C346.428 315.472 346.804 313.035 347.01 310.581C347.926 302.804 349.03 295.044 349.998 287.274L350.049 286.864C351.5 275.086 352.604 263.25 352.285 251.386C352.24 249.63 352.166 247.873 352.052 246.111C351.893 243.559 351.659 242.206 353.759 240.608C356.098 238.846 359.177 237.612 361.851 236.458C363.291 235.833 379.145 230.205 379.492 231.445C380.228 234.077 380.611 236.795 380.63 239.528C380.662 242.882 380.507 246.236 380.164 249.573V249.573Z" fill="#605D82"/>
<path opacity="0.1" d="M373.272 315.634C372.703 318.937 371.975 322.223 371.144 325.48C368.834 334.524 365.482 343.364 364.401 352.636C364.367 352.903 364.338 353.204 364.31 353.448C357.242 343.364 351.289 332.518 344.392 322.325C344.91 320.87 345.434 319.414 345.826 317.919C346.392 315.504 346.788 313.051 347.01 310.581C347.926 302.804 349.03 295.044 349.998 287.274L350.049 286.864C350.448 288.513 351.02 290.116 351.756 291.645C356.388 301.047 367.394 305.8 372.777 314.799C372.956 315.079 373.121 315.358 373.272 315.634Z" fill="black"/>
<path d="M315.922 232.968C316.155 240.506 317.362 247.981 318.568 255.428L321.055 270.777C322.415 279.19 323.838 287.768 327.821 295.3C330.803 300.939 335.094 305.749 338.981 310.802C348.529 323.229 355.705 337.31 364.759 350.1C367.394 353.818 371.155 357.843 375.645 357.064C378.593 356.558 380.733 354.102 383.043 352.215C385.775 349.987 389.064 348.355 391.215 345.558C393.366 342.761 393.787 338.123 390.874 336.133C389.878 335.457 388.666 335.201 387.539 334.769C383.026 333.063 380.101 328.652 378.246 324.195C376.391 319.738 375.258 314.958 372.783 310.814C367.4 301.815 356.388 297.062 351.756 287.654C349.161 282.39 348.911 276.285 348.717 270.447L348.211 255.491C348.154 253.853 348.114 252.154 348.78 250.659C350.55 246.679 355.899 246.304 360.235 245.798C365.153 245.225 369.917 243.724 374.274 241.376C376.772 240.028 379.208 238.312 380.534 235.81C381.751 233.537 381.917 230.859 382.059 228.278L383.561 201.168C383.692 198.838 383.806 196.422 382.992 194.239C380.926 188.747 373.984 186.951 368.117 187.212C357.202 187.701 347.13 192.391 336.818 195.563C334.263 196.348 331.697 197.053 329.062 197.581C326.785 198.042 323.94 197.854 321.755 198.593C317.84 199.912 317.937 208.473 317.385 212.02C316.246 218.942 315.756 225.955 315.922 232.968V232.968Z" fill="#605D82"/>
<path d="M374.166 358.212C375.128 359.184 375.441 360.605 375.691 361.947C377.082 369.392 377.806 376.947 377.853 384.521C377.791 385.227 377.931 385.937 378.257 386.567C378.53 386.941 378.898 387.235 379.322 387.42C382.104 388.744 385.331 386.897 387.653 384.867C391.949 381.11 395.585 376.062 395.83 370.36C395.893 368.894 395.728 367.41 395.984 365.96C396.359 363.812 397.617 361.941 398.721 360.065C400.61 356.868 402.137 353.47 403.274 349.935C403.695 348.605 403.979 346.934 402.932 346.007C402.565 345.716 402.146 345.498 401.697 345.365L389.121 340.703C388.028 340.3 385.32 347.252 384.893 348.014C383.84 349.873 382.793 350.924 380.682 351.356C378.57 351.789 375.964 351.163 373.95 352.238C370.535 354.051 372.237 356.274 374.166 358.212Z" fill="#535070"/>
<path d="M354.772 362.504C354.539 362.04 354.214 361.628 353.816 361.293C353.235 360.924 352.573 360.699 351.887 360.64C349.497 360.23 346.663 359.963 345.007 361.742C343.459 363.408 343.727 366.12 342.435 367.995C342.025 368.564 341.467 369.076 341.115 369.701C340.676 370.658 340.481 371.709 340.545 372.759C340.477 375.653 340.409 378.558 340.614 381.445C340.779 383.867 341.183 386.408 342.702 388.307C345.138 391.354 349.531 391.791 353.423 391.985L356.582 392.15C357.45 392.251 358.33 392.17 359.165 391.911C359.683 391.673 360.147 391.334 360.53 390.913C360.914 390.492 361.208 389.998 361.396 389.461C363.041 385.379 360.44 380.985 358.835 376.892C356.986 372.179 357.316 366.955 354.772 362.504Z" fill="#535070"/>
<path d="M328.658 62.3151C328.617 61.9013 328.678 61.4839 328.834 61.0985C329.295 60.2856 330.501 60.5301 331.412 60.7347C335.071 61.6556 338.929 60.82 342.702 61.036C346.475 61.252 350.72 63.1336 351.477 66.8287C354.214 64.8936 356.573 62.4736 358.437 59.6887C359.484 58.1255 360.394 56.3348 360.252 54.4589C360.047 51.753 357.777 49.7293 355.7 48.0125L349.44 42.8963C348.615 42.1407 347.664 41.5365 346.629 41.1113C345.183 40.6168 343.601 40.8555 342.076 40.8555C337.524 40.8555 332.641 38.7806 328.584 40.8555C326.877 41.7253 325.608 43.2203 324.378 44.6756L318.784 51.2925C318.361 51.7143 318.052 52.2366 317.885 52.8103C317.726 53.6176 318.141 54.4134 318.289 55.2263C318.551 56.7043 317.914 58.2846 318.403 59.7058C319.217 62.0592 322.085 62.3946 323.838 63.7476C324.486 64.2478 325.511 65.9589 326.29 65.9362C327.662 65.9077 328.618 63.4065 328.658 62.3151Z" fill="#3F3D56"/>
<path d="M338.15 81.8304C348.05 81.8304 356.075 73.8134 356.075 63.9238C356.075 54.0343 348.05 46.0172 338.15 46.0172C328.25 46.0172 320.224 54.0343 320.224 63.9238C320.224 73.8134 328.25 81.8304 338.15 81.8304Z" fill="#FFC0C6"/>
<path d="M342.349 103.108C341.742 101.373 340.599 99.8745 339.084 98.8303C337.569 97.7861 335.761 97.2496 333.922 97.2984C333.394 97.399 332.848 97.3293 332.362 97.0994C332.087 96.8895 331.867 96.6166 331.719 96.3036C330.633 94.3438 329.757 92.2744 329.107 90.13C328.823 89.1807 328.43 88.0608 327.468 87.8164C326.694 87.6174 325.903 88.1177 325.386 88.7259C324.927 89.3786 324.429 90.0032 323.895 90.5962C321.618 92.6085 317.635 90.7724 315.251 92.6199C314.858 92.9212 314.534 93.3078 314.112 93.5863C313.703 93.8357 313.26 94.027 312.798 94.1548C308.169 95.659 303.632 97.4299 299.209 99.4586C300.802 109.031 302.429 118.786 306.163 127.74C307.938 132.003 309.947 136.181 311.37 140.576C314.522 150.313 314.659 160.733 314.699 170.971C314.699 177.975 314.699 185.126 312.422 191.754C311.91 193.255 311.284 194.745 311.142 196.302C311 197.86 311.466 199.622 312.747 200.554C313.488 201.043 314.338 201.341 315.222 201.424C319.154 201.992 323.115 200.958 326.985 200.06C337.359 197.661 347.943 196.285 358.499 194.944L376.197 192.67C377.467 192.581 378.709 192.259 379.862 191.72C383.1 189.952 383.407 185.086 381.393 181.994C380.431 180.51 379.071 179.294 378.257 177.725C377.444 176.156 377.381 173.95 378.775 172.864C381.621 170.647 380.767 166.537 380.904 162.945C381.283 152.894 381.232 142.851 380.75 132.816C380.605 130.735 380.571 128.648 380.647 126.563C380.847 123.027 381.723 119.565 382.599 116.126L387.977 94.979C386.571 92.762 383.88 91.3522 381.336 90.7156C378.792 90.0789 376.135 89.8913 373.625 89.1125C368.504 87.5208 363.906 83.4847 358.539 83.8599C358.132 83.8671 357.732 83.9642 357.367 84.1441C356.161 84.832 356.348 86.5715 356.274 87.9585C356.104 91.0339 353.839 93.5977 351.346 95.3997C348.854 97.2017 345.997 98.5092 343.704 100.561C343.306 100.861 342.978 101.245 342.744 101.685C342.51 102.125 342.375 102.611 342.349 103.108V103.108Z" fill="#3F3C64"/>
<path d="M271.324 123.169C270.137 123.94 268.875 124.59 267.557 125.108C266.305 125.602 264.968 125.994 263.944 126.859C263.437 127.298 263.011 127.823 262.686 128.41C262.08 129.485 261.773 130.703 261.798 131.937C261.823 133.17 262.18 134.375 262.83 135.424C263.479 136.473 264.399 137.329 265.493 137.902C266.587 138.475 267.815 138.745 269.048 138.683C270.693 138.597 272.246 137.932 273.754 137.278L286.399 131.781C288.539 130.855 290.849 129.775 291.862 127.671C291.978 127.475 292.022 127.244 291.987 127.018C291.889 126.77 291.703 126.567 291.464 126.449C288.614 124.597 286.122 122.248 284.106 119.514C283.588 118.809 282.968 117.149 282.216 116.723C279.542 115.239 273.47 121.782 271.324 123.169Z" fill="#FFC0C6"/>
<path d="M406.489 118.707L411.149 124.028C412.151 125.165 413.152 126.301 414.063 127.529C416.304 130.612 418.1 133.993 419.401 137.574C420.414 140.229 421.256 143.06 420.903 145.879C420.667 147.325 420.276 148.741 419.737 150.103C418.883 152.722 417.823 155.269 416.567 157.72C415.518 159.581 414.333 161.361 413.022 163.047C409.412 167.825 405.462 172.337 401.202 176.548C399.609 178.123 398.926 180.675 398.249 182.801C396.968 186.729 393.924 189.793 390.982 192.692C390.035 193.692 388.989 194.591 387.858 195.376C386.164 196.467 384.182 197.029 382.167 196.99C381.287 196.995 380.417 196.815 379.612 196.461C377.597 195.506 376.573 193.181 376.362 190.964C376.176 188.95 376.514 186.921 377.341 185.075C380.016 179.157 386.884 176.593 391.739 172.273C394.584 169.743 396.763 166.56 398.914 163.416C400.371 161.452 401.588 159.32 402.539 157.067C403.621 154.173 403.2 150.751 404.15 147.818C404.548 146.573 405.288 145.453 405.692 144.219C406.096 142.986 406.233 141.525 405.476 140.462C404.909 139.782 404.184 139.252 403.365 138.916C400.263 137.347 396.792 135.323 396.2 131.895C395.963 129.997 396.46 128.08 397.589 126.535C398.711 125.009 400.025 123.634 401.498 122.442C402.847 121.225 405.129 119.878 406.489 118.707Z" fill="#FFC0C6"/>
<path d="M268.331 130.593C267.512 128.933 266.482 127.239 264.82 126.415C264.011 126.067 263.14 125.887 262.259 125.887C261.379 125.887 260.507 126.067 259.698 126.415C258.088 127.111 256.58 128.021 255.214 129.121L251.197 132.083C250.286 132.68 249.48 133.423 248.812 134.283C248.175 135.326 247.753 136.485 247.572 137.693C247.003 140.462 246.542 143.31 246.94 146.112C247.577 150.66 250.309 154.594 253.314 158.05C255.191 160.199 257.513 162.37 260.37 162.467C261.605 162.507 262.976 162.018 263.488 160.898C263.667 160.453 263.762 159.979 263.767 159.5C264.075 154.452 262.265 149.523 260.159 144.924C259.59 143.674 258.976 142.378 259.021 141.008C259.004 140.775 259.064 140.543 259.192 140.348C259.373 140.159 259.615 140.04 259.875 140.013C262.76 139.444 267.734 141.684 269.754 138.484C271.063 136.369 269.264 132.475 268.331 130.593Z" fill="#FFC0C6"/>
<path d="M327.713 56.6816C327.677 56.2674 327.74 55.8507 327.895 55.4651C328.356 54.6465 329.563 54.8966 330.473 55.1013C334.132 56.0222 337.99 55.1865 341.763 55.4025C345.536 55.6186 349.776 57.5002 350.538 61.1952C353.273 59.257 355.631 56.8376 357.498 54.0553C358.545 52.4863 359.455 50.6957 359.313 48.8197C359.108 46.1138 356.832 44.0901 354.761 42.379L348.501 37.2629C347.678 36.5074 346.729 35.9031 345.695 35.4779C344.244 34.9833 342.668 35.2221 341.143 35.2221C336.59 35.2221 331.708 33.1472 327.65 35.2221C325.943 36.0918 324.674 37.5869 323.445 39.0422L317.846 45.6591C317.425 46.0818 317.117 46.6039 316.952 47.1769C316.793 47.9841 317.208 48.7799 317.356 49.5928C317.618 51.0709 316.981 52.6512 317.47 54.0667C318.284 56.4258 321.152 56.7612 322.904 58.1141C323.553 58.6144 324.578 60.3254 325.357 60.3027C326.706 60.2743 327.662 57.773 327.713 56.6816Z" fill="#3F3D56"/>
<path d="M289.643 105.751C288.92 106.22 288.285 106.811 287.765 107.497C287.11 108.491 286.974 109.77 286.41 110.794C285.204 113.033 282.376 113.835 280.617 115.671C280.332 115.922 280.133 116.256 280.048 116.626C280.037 117.126 280.205 117.614 280.521 118.002L289.022 131.349C291.868 131.6 294.565 129.826 297.399 130.065C298.452 130.15 299.539 130.514 300.552 130.201C301.276 129.879 301.955 129.464 302.572 128.968C304.279 127.899 306.51 127.774 307.927 126.37C309.344 124.966 309.463 122.902 309.446 120.986C309.472 119.324 309.302 117.664 308.94 116.041C307.688 110.924 303.767 106.979 301.308 102.443C300.108 100.232 299.459 98.9412 296.927 100.459C294.394 101.977 292.038 104.001 289.643 105.751Z" fill="#3F3D56"/>
<path d="M392.877 99.0038C394.475 100.04 395.916 101.3 397.156 102.744C398.448 104.41 399.182 106.456 400.428 108.162C401.674 109.867 403.274 111.095 404.639 112.618C406.716 114.926 408.122 117.735 409.499 120.526C406.128 124.908 402.454 129.048 398.505 132.918C398.064 133.436 397.483 133.815 396.832 134.01C396.39 134.057 395.944 133.994 395.532 133.827C395.121 133.659 394.758 133.392 394.476 133.049C393.861 132.412 393.429 131.617 392.843 130.951C391.462 129.529 389.621 128.641 387.647 128.445C385.689 128.254 383.719 128.226 381.757 128.359C381.326 128.41 380.89 128.337 380.5 128.149C380.209 127.95 379.974 127.68 379.817 127.364C377.54 123.453 378.252 118.542 379.065 114.074L380.926 103.841C381.198 101.888 381.72 99.9772 382.48 98.1568C383.186 96.6503 384.756 94.0922 386.702 94.547C388.649 95.0018 391.232 97.8214 392.877 99.0038Z" fill="#3F3D56"/>
<path d="M230.596 174.013L191.394 182.022L190.5 181.937L156.049 178.464V134.851L198.222 127.728L228.815 131.293L228.827 131.486V131.577L230.596 174.013Z" fill="#C6D2E6"/>
<path opacity="0.1" d="M230.596 174.013L191.394 182.022L190.5 181.937V137.227L228.827 131.486L230.596 174.013Z" fill="black"/>
<path opacity="0.05" d="M228.827 131.577L228.815 131.588L190.5 137.227L156.049 134.851L198.222 127.728L228.815 131.293L228.827 131.486V131.577Z" fill="black"/>
<path d="M251.083 130.809L211.88 138.825L210.987 138.734L176.535 135.26V91.6479L218.709 84.525L249.302 88.0893L249.313 88.2825V88.3735L251.083 130.809Z" fill="#3F3D56"/>
<path opacity="0.1" d="M251.083 130.809L211.88 138.825L210.987 138.734V94.024L249.313 88.2825L251.083 130.809Z" fill="black"/>
<path opacity="0.05" d="M249.313 88.3735L249.302 88.3849L210.986 94.024L176.535 91.6478L218.709 84.525L249.302 88.0893L249.313 88.2825V88.3735Z" fill="black"/>
</g>
<defs>
<clipPath id="clip0">
<rect width="540.367" height="400" fill="white"/>
</clipPath>
</defs>
</svg>
