<svg width="497" height="370" viewBox="0 0 497 370" fill="none" xmlns="http://www.w3.org/2000/svg">
<path d="M358.279 348.81H55.5308V350.094H358.279V348.81Z" fill="#3F3D56"/>
<path d="M216.084 172.088C216.084 172.088 209.659 200.976 222.509 195.84C235.359 190.704 227.649 170.804 227.649 170.804L216.084 172.088Z" fill="#FFB9B9"/>
<path d="M336.233 181.717C336.233 181.717 351.654 200.334 342.016 204.185C332.378 208.037 327.238 186.853 328.523 184.927C329.808 183.001 336.233 181.717 336.233 181.717Z" fill="#FFB9B9"/>
<path d="M299.61 50.1167C310.256 50.1167 318.886 41.4944 318.886 30.8581C318.886 20.2219 310.256 11.5996 299.61 11.5996C288.965 11.5996 280.335 20.2219 280.335 30.8581C280.335 41.4944 288.965 50.1167 299.61 50.1167Z" fill="#FFB9B9"/>
<path d="M285.154 38.2408L282.584 58.1412L303.786 65.8444L308.284 43.3761L285.154 38.2408Z" fill="#FFB9B9"/>
<path d="M297.04 57.8202C297.04 57.8202 286.148 52.4476 283.884 48.0724L279.05 52.6845C279.05 52.6845 244.355 49.4748 239.215 66.8075C234.074 84.1402 238.572 147.052 238.572 147.052C238.572 147.052 231.504 175.297 233.432 175.939C235.359 176.581 259.132 188.137 292.543 181.717C292.543 181.717 307.32 179.149 309.89 181.075C312.461 183.001 308.605 150.261 308.605 150.261C308.605 150.261 334.306 92.4856 329.808 85.4241C325.311 78.3626 305.393 63.5977 305.393 63.5977L306.678 56.5362C306.678 56.5362 297.683 60.388 297.04 57.8202Z" fill="#CFCCE0"/>
<path d="M244.355 62.3138C244.355 62.3138 232.789 68.0914 230.862 77.0787C228.934 86.0661 210.944 160.533 212.872 165.026C214.799 169.52 214.157 175.298 214.157 175.298L230.862 173.372C230.862 173.372 227.649 168.878 229.577 166.952C231.504 165.026 233.432 158.607 232.147 156.039C230.862 153.471 229.577 157.965 236.644 149.619C243.712 141.274 259.775 64.8816 244.355 62.3138Z" fill="#CFCCE0"/>
<path d="M325.953 84.1402C325.953 84.1402 331.414 84.4612 332.699 93.4485C333.985 102.436 336.233 157.965 336.233 157.965C336.233 157.965 344.586 175.939 341.373 178.507C338.161 181.075 340.088 184.927 340.088 184.927L328.523 188.137L303.465 148.977L325.953 84.1402Z" fill="#CFCCE0"/>
<path d="M235.359 173.372C235.359 173.372 231.504 174.014 231.504 188.137C231.504 202.26 224.437 245.912 228.934 252.974C233.432 260.035 234.074 323.589 234.074 323.589C234.074 323.589 246.282 328.724 256.562 312.033L257.847 303.046L260.417 259.393L270.697 204.827L284.833 265.171C284.833 265.171 282.905 337.712 289.973 337.712C297.04 337.712 310.533 331.934 310.533 331.934C310.533 331.934 313.745 325.514 312.46 322.305C311.175 319.095 309.89 319.737 311.175 317.169C312.46 314.601 314.388 247.838 314.388 247.838C314.388 247.838 311.818 179.149 308.605 177.223C305.393 175.298 235.359 173.372 235.359 173.372Z" fill="#2F2E41"/>
<path d="M235.359 321.021L225.079 331.934C225.079 331.934 206.447 349.267 222.509 349.909C238.572 350.551 247.567 339.637 247.567 338.353C247.567 337.07 248.21 332.576 252.707 332.576C257.205 332.576 268.127 321.663 265.557 317.169C262.987 312.675 255.277 310.75 255.277 310.75L235.359 321.021Z" fill="#2F2E41"/>
<path d="M290.615 335.144C290.615 335.144 282.905 350.551 287.403 353.76C291.9 356.97 293.185 358.254 293.185 358.254C293.185 358.254 297.04 357.612 296.398 363.39C295.755 369.167 319.528 372.377 320.813 367.883C322.098 363.39 321.456 354.402 318.886 351.834C316.316 349.267 308.605 331.292 308.605 331.292C308.605 331.292 300.253 321.663 290.615 335.144Z" fill="#2F2E41"/>
<path d="M319.064 15.3941L322.695 14.8787C322.695 14.8787 317.64 5.58297 307.856 3.89504L311.29 1.57912C311.29 1.57912 305.323 -2.68202 297.61 2.79515C293.556 5.67436 288.849 9.07298 285.386 13.3508L281.844 12.4859L282.527 16.0991L276.557 18.088L282.011 18.8006C281.259 20.5043 280.765 22.3107 280.547 24.1599C280.336 26.0114 280.852 27.8726 281.988 29.3506C281.988 29.3506 288.165 21.8691 288.489 20.5461L287.68 23.8536C287.68 23.8536 291.715 21.6845 292.201 19.7001L293.439 22.4558L295.231 19.0379L305.466 25.3926L304.39 21.9754L311.063 24.6562L309.246 20.3573C309.246 20.3573 316.012 26.5658 315.423 30.2774C314.834 33.989 316.279 37.9951 316.279 37.9951C316.279 37.9951 326.57 22.4843 319.064 15.3941Z" fill="#2F2E41"/>
<path d="M497 233.593H394.107V234.823H497V233.593Z" fill="#3F3D56"/>
<path d="M112.395 328.378H87.5931V353.159H112.395V328.378Z" fill="#CFCCE0"/>
<path d="M109.132 349.898H83.0243V323.813H109.132V349.898ZM84.3297 348.594H107.826V325.118H84.3296L84.3297 348.594Z" fill="#3F3D56"/>
<path d="M139.531 111.852L123.834 117.917L129.695 133.057L145.391 126.992L139.531 111.852Z" fill="#F2F2F2"/>
<path d="M142.554 125.798L126.032 132.182L119.864 116.246L136.386 109.861L142.554 125.798ZM126.55 131.066L141.42 125.32L135.868 110.977L120.998 116.723L126.55 131.066Z" fill="#3F3D56"/>
<path d="M427.947 296.413L422.475 280.512L407.112 285.79L412.583 301.691L427.947 296.413Z" fill="#F2F2F2"/>
<path d="M413.885 298.904L408.125 282.166L424.298 276.611L430.057 293.349L413.885 298.904ZM409.222 282.725L414.406 297.789L428.961 292.79L423.777 277.726L409.222 282.725Z" fill="#3F3D56"/>
<path d="M78.0355 217.368C87.238 217.566 94.5584 224.229 94.5584 224.229C94.5584 224.229 86.9588 230.572 77.7563 230.375C68.5539 230.178 61.2334 223.514 61.2334 223.514C61.2334 223.514 68.8331 217.171 78.0355 217.368Z" fill="#4EA584"/>
<path d="M31.7704 185.983C40.0844 189.929 49.6179 187.253 49.6179 187.253C49.6179 187.253 45.6718 178.179 37.3578 174.232C29.0438 170.286 19.5103 172.962 19.5103 172.962C19.5103 172.962 23.4564 182.037 31.7704 185.983Z" fill="#4EA584"/>
<path d="M32.6156 182.061C41.7819 181.224 49.8052 187.023 49.8052 187.023C49.8052 187.023 42.9669 194.18 33.8005 195.016C24.6342 195.853 16.6109 190.054 16.6109 190.054C16.6109 190.054 23.4492 182.898 32.6156 182.061Z" fill="#3F3D56"/>
<path d="M66.2166 183.647C65.338 192.801 71.1063 200.844 71.1063 200.844C71.1063 200.844 78.2991 194.043 79.1776 184.889C80.0562 175.734 74.2879 167.692 74.2879 167.692C74.2879 167.692 67.0951 174.492 66.2166 183.647Z" fill="#3F3D56"/>
<path d="M109.386 239.792C104.578 247.634 106.232 257.389 106.232 257.389C106.232 257.389 115.681 254.429 120.489 246.587C125.297 238.744 123.642 228.989 123.642 228.989C123.642 228.989 114.193 231.949 109.386 239.792Z" fill="#3F3D56"/>
<path d="M95.4375 325.058L96.1381 324.585C93.6685 321.004 92.32 316.77 92.2641 312.422C92.2837 306.061 95.4106 300.178 98.4348 294.489C98.9961 293.433 99.5556 292.38 100.094 291.328C102.353 287.038 104.153 282.522 105.465 277.856C110.156 260.439 105.537 239.89 93.1113 222.888C83.2537 209.401 68.5589 197.607 48.1878 186.832L47.7923 187.579C68.0474 198.292 82.648 210.005 92.4284 223.387C104.705 240.184 109.273 260.464 104.648 277.636C103.352 282.246 101.573 286.706 99.3411 290.943C98.8046 291.991 98.2472 293.04 97.6879 294.092C94.6156 299.873 91.4387 305.85 91.4185 312.42C91.4744 316.937 92.8733 321.337 95.4375 325.058Z" fill="#3F3D56"/>
<path d="M8.03325 187.942C12.4698 187.942 16.0663 184.349 16.0663 179.916C16.0663 175.483 12.4698 171.89 8.03325 171.89C3.59671 171.89 0.000183105 175.483 0.000183105 179.916C0.000183105 184.349 3.59671 187.942 8.03325 187.942Z" fill="#3F3D56"/>
<path d="M445.348 227.325L341.947 190.219L360.407 138.865L424.79 123.089L463.809 175.971L445.348 227.325Z" fill="#2F2E41"/>
<path d="M432.822 217.141L355.55 187.711C375.61 160.864 384.58 141.926 384.587 112.126L461.859 141.557C443.908 167.035 436.4 186.188 432.822 217.141Z" fill="#F2F2F2"/>
<path d="M438.904 145.584L398.871 130.337L398.162 132.197L438.194 147.444L438.904 145.584Z" fill="#3F3D56"/>
<path d="M436.065 153.025L396.032 137.778L395.323 139.639L435.355 154.886L436.065 153.025Z" fill="#3F3D56"/>
<path d="M433.226 160.467L393.193 145.22L392.483 147.08L432.516 162.327L433.226 160.467Z" fill="#3F3D56"/>
<path d="M430.387 167.908L390.354 152.661L389.644 154.522L429.677 169.769L430.387 167.908Z" fill="#3F3D56"/>
<path d="M427.548 175.35L387.515 160.103L386.805 161.963L426.838 177.21L427.548 175.35Z" fill="#3F3D56"/>
<path d="M424.709 182.791L384.676 167.544L383.966 169.405L423.999 184.652L424.709 182.791Z" fill="#3F3D56"/>
<path d="M421.869 190.233L381.837 174.986L381.127 176.846L421.16 192.093L421.869 190.233Z" fill="#3F3D56"/>
<path d="M419.03 197.675L378.998 182.427L378.288 184.288L418.321 199.535L419.03 197.675Z" fill="#3F3D56"/>
<path d="M442.96 233.971L339.558 196.865L360.407 138.865L404.073 179.772L463.809 175.971L442.96 233.971Z" fill="#3F3D56"/>
<path d="M390.42 215.695L338.861 197.193L351.424 162.243L352.449 162.611L340.255 196.536L390.788 214.671L390.42 215.695Z" fill="#4EA584"/>
<path d="M372.093 178.527L356.976 173.102L354.804 179.144L369.921 184.569L372.093 178.527Z" fill="#4EA584"/>
<path d="M201.17 349.267L120.24 349.224L120.876 303.829L161.095 321.891L201.805 304.96L201.17 349.267Z" fill="#3F3D56"/>
<path d="M138.516 328.669L126.684 328.504L126.618 333.233L138.45 333.398L138.516 328.669Z" fill="#4EA584"/>
<path d="M202.076 304.898L161.169 325.735L120.663 304.898V303.696H202.076V304.898Z" fill="#4EA584"/>
<path d="M437.239 133.081C438.206 130.546 433.296 126.323 426.272 123.648C419.249 120.973 412.771 120.859 411.804 123.394C410.837 125.928 415.747 130.152 422.771 132.827C429.794 135.502 436.272 135.616 437.239 133.081Z" fill="#4EA584"/>
<path d="M448.354 55.7821C445.76 54.9762 443.032 54.6886 440.327 54.9359C437.621 55.1832 434.991 55.9605 432.586 57.2234C430.182 58.4863 428.049 60.21 426.311 62.2963C424.573 64.3825 423.264 66.7903 422.457 69.3823C419.065 80.2829 428.31 120.188 428.31 120.188C428.31 120.188 458.574 92.5574 461.966 81.6567C463.595 76.422 463.076 70.7552 460.524 65.9027C457.971 61.0503 453.593 57.4098 448.354 55.7821ZM439.302 84.8688C437.451 84.2938 435.813 83.1834 434.594 81.678C433.374 80.1727 432.63 78.3399 432.453 76.4115C432.276 74.4831 432.676 72.5457 433.602 70.8443C434.527 69.1429 435.937 67.7539 437.652 66.8529C439.368 65.952 441.312 65.5795 443.24 65.7827C445.167 65.9859 446.991 66.7556 448.481 67.9944C449.97 69.2332 451.059 70.8856 451.608 72.7425C452.158 74.5994 452.144 76.5775 451.569 78.4266C451.187 79.6544 450.566 80.7949 449.743 81.7831C448.92 82.7713 447.91 83.5879 446.771 84.1861C445.632 84.7843 444.386 85.1525 443.104 85.2696C441.823 85.3868 440.531 85.2505 439.302 84.8688Z" fill="#4EA584"/>
</svg>
