<svg width="17" height="19" viewBox="0 0 17 19" fill="none" xmlns="http://www.w3.org/2000/svg">
<path fill-rule="evenodd" clip-rule="evenodd" d="M8.49999 7.29998C9.45477 7.29998 10.3704 6.92069 11.0456 6.24556C11.7207 5.57043 12.1 4.65476 12.1 3.69998C12.1 2.7452 11.7207 1.82952 11.0456 1.15439C10.3704 0.47926 9.45477 0.0999756 8.49999 0.0999756C7.54522 0.0999756 6.62954 0.47926 5.95441 1.15439C5.27928 1.82952 4.89999 2.7452 4.89999 3.69998C4.89999 4.65476 5.27928 5.57043 5.95441 6.24556C6.62954 6.92069 7.54522 7.29998 8.49999 7.29998ZM3.39865 18.1C1.57685 18.1 0.0422353 16.5686 0.739406 14.8854C1.16155 13.8663 1.78029 12.9403 2.5603 12.1603C3.34031 11.3803 4.26632 10.7615 5.28545 10.3394C6.30459 9.91725 7.39689 9.69998 8.49999 9.69998C9.6031 9.69998 10.6954 9.91725 11.7145 10.3394C12.7337 10.7615 13.6597 11.3803 14.4397 12.1603C15.2197 12.9403 15.8384 13.8663 16.2606 14.8854C16.9578 16.5686 15.4231 18.1 13.6013 18.1H3.39865Z" fill="#ADB6CB"/>
</svg>
